<svg width="30" height="30" viewBox="0 0 30 30" fill="none" xmlns="http://www.w3.org/2000/svg">
<path d="M23.9377 0.76001H6.06246C3.02246 0.76001 0.560059 3.22236 0.560059 6.23201V24.1376C0.560059 27.1776 3.0224 29.64 6.06246 29.64H23.9681C27.0081 29.64 29.4705 27.1777 29.4705 24.1376V6.23201C29.4401 3.22236 26.9778 0.76001 23.9377 0.76001ZM26.5521 24.1376C26.5521 25.5664 25.3968 26.752 23.9377 26.752H6.06246C4.63366 26.752 3.44806 25.5968 3.44806 24.1376V6.23201C3.44806 4.80321 4.60331 3.6479 6.06246 3.6479H23.9681C25.3969 3.6479 26.5825 4.80316 26.5825 6.23201V24.1376H26.5521Z" fill="#0D8CC5"/>
<path d="M15.3954 6.84H11.5954C10.805 6.84 10.1362 7.4785 10.1362 8.29914V22.9823C10.1362 23.2864 10.3795 23.56 10.7139 23.56H12.4468C12.7509 23.56 13.0244 23.3168 13.0244 22.9823L13.0242 17.3887H15.5474C18.5874 17.3887 21.0194 14.8352 20.8066 11.7647C20.6545 8.96794 18.1922 6.84 15.3954 6.84H15.3954ZM15.5777 14.5008H13.0545V9.72789H15.5777C16.8848 9.72789 17.9489 10.792 17.9489 12.0991C17.9489 13.4367 16.8848 14.5008 15.5777 14.5008Z" fill="#0D8CC5"/>
</svg>
