<svg width="36" height="32" viewBox="0 0 36 32" fill="none" xmlns="http://www.w3.org/2000/svg">
<path d="M34.296 3.05764H16.254C16.2532 2.44031 16.0077 1.84868 15.5715 1.41221C15.135 0.975974 14.5433 0.730443 13.926 0.729645H6.94203C6.3247 0.730424 5.73307 0.975954 5.2966 1.41221C4.86036 1.84871 4.61483 2.44033 4.61403 3.05764H1.70403C1.39537 3.0579 1.09943 3.1808 0.881184 3.39879C0.663197 3.61704 0.540298 3.91298 0.540039 4.22164V27.5016C0.540299 27.8103 0.663197 28.106 0.881443 28.3242C1.09969 28.5425 1.39537 28.6654 1.70403 28.6656H4.61402C4.61454 29.283 4.86007 29.8746 5.29659 30.3111C5.73311 30.7475 6.3247 30.9931 6.94202 30.9936H13.926C14.5434 30.9931 15.135 30.7476 15.5715 30.3111C16.0079 29.8745 16.2535 29.2829 16.254 28.6656H34.296C34.6047 28.6651 34.9004 28.5425 35.1186 28.3242C35.3368 28.106 35.4595 27.8103 35.46 27.5016V4.22164C35.4597 3.91297 35.3368 3.6173 35.1186 3.39906C34.9003 3.18082 34.6047 3.05791 34.296 3.05765L34.296 3.05764ZM4.61403 27.5016H1.70403V4.22165H4.61403V27.5016ZM15.09 3.63965V28.6656C15.0898 28.9743 14.9669 29.27 14.7486 29.4882C14.5304 29.7065 14.2347 29.8294 13.926 29.8296H6.94204C6.63338 29.8294 6.3377 29.7065 6.11946 29.4882C5.90122 29.27 5.77832 28.9743 5.77806 28.6656V3.05764C5.77832 2.74898 5.90122 2.45304 6.1192 2.2348C6.33745 2.01681 6.63339 1.89391 6.94205 1.89365H13.926C14.2347 1.89391 14.5307 2.01681 14.7489 2.2348C14.9669 2.45304 15.0898 2.74899 15.09 3.05764L15.09 3.63965ZM34.296 27.5016H16.254V4.22165L34.296 4.22087V27.5016Z" fill="#0D8CC5" stroke="#0D8CC5"/>
</svg>
