<svg width="17" height="17" viewBox="0 0 17 17" fill="none" xmlns="http://www.w3.org/2000/svg">
<path fill-rule="evenodd" clip-rule="evenodd" d="M16.6272 4.86295C16.6272 0.276723 9.58609 0.276723 9.58609 4.86295V9.39265H10.1204V12.7899C10.1204 16.6779 16.1118 16.6779 16.1118 12.7899V9.39265H16.627V4.86295H16.6272ZM1.28582 4.86295V9.39265H1.82008V12.7899C1.82008 16.6779 7.81152 16.6779 7.81152 12.7899V9.39265H8.34578V4.86295C8.34578 0.276723 1.28564 0.276723 1.28564 4.86295H1.28582ZM6.85762 12.7899C6.85762 15.4511 2.77415 15.4511 2.77415 12.7899V9.39265H6.85762V12.7899ZM7.39189 8.44891H2.24V4.86295C2.24 1.52248 7.39189 1.52248 7.39189 4.86295V8.44891ZM10.5403 4.86295C10.5403 1.52248 15.6922 1.52248 15.6922 4.86295V8.44891H10.5403V4.86295ZM15.158 12.7899C15.158 15.4511 11.0554 15.4511 11.0554 12.7899V9.39265H15.158V12.7899Z" fill="#0D8CC5" stroke="#0D8CC5"/>
</svg>
