<svg width="26" height="39" viewBox="0 0 26 39" fill="none" xmlns="http://www.w3.org/2000/svg">
<path d="M20.7043 0.663527C20.5651 0.669863 20.4279 0.700389 20.2986 0.753957L1.64232 8.18534C1.41515 8.27606 1.22023 8.43387 1.08217 8.63862C0.944396 8.84338 0.87027 9.08558 0.869141 9.33382V36.5822C0.869141 36.9108 0.997294 37.2259 1.2256 37.458C1.45362 37.6904 1.76312 37.8208 2.08592 37.8208H23.9868C24.3095 37.8208 24.619 37.6904 24.8471 37.458C25.0754 37.2259 25.2035 36.9108 25.2035 36.5822V9.33382C25.2035 9.00523 25.0754 8.69017 24.8471 8.45805C24.6191 8.22565 24.3096 8.09519 23.9868 8.09519H8.52436L19.5255 3.70861V5.20528C19.5207 5.53675 19.6468 5.85612 19.8757 6.09225C20.1043 6.3284 20.4163 6.46145 20.742 6.46145C21.0679 6.46145 21.3799 6.3284 21.6085 6.09225C21.8374 5.85611 21.9633 5.53673 21.9587 5.20528V1.90237C21.959 1.56716 21.8255 1.24606 21.589 1.01252C21.3525 0.779252 21.0334 0.653405 20.704 0.663771L20.7043 0.663527ZM3.3031 10.572H22.7705V35.3433H3.3031V10.572ZM6.12928 12.1977C6.08685 12.1997 6.04441 12.2041 6.00254 12.2107C5.70238 12.2458 5.42598 12.3936 5.22681 12.6248C5.02765 12.8561 4.92014 13.1547 4.92524 13.4622V18.4164C4.9258 18.4726 4.93005 18.5284 4.93797 18.584C5.02963 19.2945 5.12751 19.9773 5.36883 20.6483C5.61014 21.3193 6.05996 22.0335 6.8136 22.416C6.98306 22.5015 7.1695 22.5456 7.35876 22.545V32.4535C7.35395 32.785 7.48012 33.1046 7.70899 33.3408C7.93757 33.5769 8.24961 33.7097 8.57524 33.7097C8.90115 33.7097 9.21319 33.5769 9.44179 33.3408C9.67066 33.1046 9.79655 32.785 9.79202 32.4535V22.545C9.981 22.5456 10.1677 22.5015 10.3372 22.416C11.0908 22.0335 11.5406 21.3193 11.7819 20.6483C12.0233 19.9773 12.1212 19.2945 12.2128 18.584C12.2207 18.5284 12.225 18.4726 12.2255 18.4164V13.4622C12.2301 13.1305 12.1039 12.8111 11.8753 12.575C11.6467 12.3388 11.3344 12.2061 11.0088 12.2061C10.6831 12.2061 10.3708 12.3388 10.1422 12.575C9.91362 12.8111 9.78746 13.1305 9.79198 13.4622V16.3521H7.3587V13.4622C7.36549 13.127 7.23846 12.8033 7.00677 12.5649C6.77507 12.3267 6.4585 12.1942 6.12921 12.1977L6.12928 12.1977ZM17.4853 12.2236C16.2719 12.2199 15.3029 13.0274 14.7222 14.0039C14.1417 14.9805 13.844 16.2001 13.8477 17.5262C13.8506 18.4887 13.8862 19.3878 14.1139 20.2356C14.3417 21.0831 14.8422 21.9687 15.7237 22.4159C15.8929 22.5014 16.0796 22.5455 16.2686 22.5449V32.4534C16.264 32.7849 16.3902 33.1046 16.6188 33.3407C16.8474 33.5768 17.1597 33.7096 17.4854 33.7096C17.811 33.7096 18.123 33.5769 18.3519 33.3407C18.5805 33.1046 18.7067 32.7849 18.7021 32.4534V22.5449C18.8911 22.5455 19.0775 22.5014 19.247 22.4159C20.1266 21.9695 20.6247 21.0961 20.8568 20.2483C21.0885 19.4005 21.1326 18.4916 21.1354 17.5262C21.1394 16.1977 20.8327 14.9799 20.2482 14.0039C19.6638 13.028 18.6987 12.2199 17.4854 12.2236H17.4853ZM17.4853 14.7006C17.6208 14.7003 17.8729 14.7988 18.1696 15.2942C18.4664 15.7895 18.7046 16.6079 18.702 17.5263C18.6995 18.3974 18.6367 19.1215 18.5119 19.5776C18.4132 19.9379 18.3252 19.9958 18.233 20.0677H16.7376C16.6479 19.9972 16.5676 19.9485 16.4714 19.5906C16.3489 19.1341 16.2838 18.4003 16.2813 17.5263C16.2784 16.6056 16.5195 15.7889 16.8134 15.2941C17.1076 14.7994 17.3498 14.7003 17.4853 14.7006L17.4853 14.7006ZM7.44739 18.8292H9.70352C9.63958 19.2249 9.57933 19.5782 9.50068 19.7968C9.42061 20.0197 9.37224 20.022 9.3233 20.0678H7.82761C7.77867 20.022 7.73029 20.0197 7.65023 19.7968C7.57159 19.5782 7.51132 19.2249 7.44739 18.8292Z" fill="#0D8CC5"/>
</svg>
