<svg width="30" height="37" viewBox="0 0 30 37" fill="none" xmlns="http://www.w3.org/2000/svg">
<g clip-path="url(#clip0_24_51)">
<path d="M25 0H5C3.67392 0 2.40215 0.51976 1.46447 1.44494C0.526784 2.37012 0 3.62493 0 4.93333L0 24.6667C0 25.9751 0.526784 27.2299 1.46447 28.1551C2.40215 29.0802 3.67392 29.6 5 29.6H25C26.3261 29.6 27.5979 29.0802 28.5355 28.1551C29.4732 27.2299 30 25.9751 30 24.6667V4.93333C30 3.62493 29.4732 2.37012 28.5355 1.44494C27.5979 0.51976 26.3261 0 25 0V0ZM27.5 24.6667C27.5 25.3209 27.2366 25.9483 26.7678 26.4109C26.2989 26.8735 25.663 27.1333 25 27.1333H5C4.33696 27.1333 3.70107 26.8735 3.23223 26.4109C2.76339 25.9483 2.5 25.3209 2.5 24.6667V4.93333C2.5 4.27913 2.76339 3.65173 3.23223 3.18914C3.70107 2.72655 4.33696 2.46667 5 2.46667H25C25.663 2.46667 26.2989 2.72655 26.7678 3.18914C27.2366 3.65173 27.5 4.27913 27.5 4.93333V24.6667Z" fill="white"/>
<path d="M15 7.3999C13.5166 7.3999 12.0666 7.8339 10.8332 8.64703C9.59985 9.46015 8.63856 10.6159 8.0709 11.968C7.50325 13.3202 7.35472 14.8081 7.64411 16.2436C7.9335 17.679 8.64781 18.9976 9.6967 20.0325C10.7456 21.0674 12.082 21.7722 13.5368 22.0577C14.9917 22.3432 16.4997 22.1967 17.8701 21.6366C19.2406 21.0765 20.4119 20.128 21.236 18.9111C22.0601 17.6942 22.5 16.2635 22.5 14.7999C22.5 12.8373 21.7098 10.9551 20.3033 9.56731C18.8968 8.17954 16.9891 7.3999 15 7.3999ZM15 19.7332C14.0111 19.7332 13.0444 19.4439 12.2221 18.9018C11.3999 18.3597 10.759 17.5893 10.3806 16.6878C10.0022 15.7864 9.90315 14.7944 10.0961 13.8375C10.289 12.8805 10.7652 12.0014 11.4645 11.3115C12.1637 10.6216 13.0546 10.1517 14.0245 9.96136C14.9945 9.77101 15.9998 9.8687 16.9134 10.2421C17.827 10.6155 18.6079 11.2478 19.1573 12.0591C19.7068 12.8704 20 13.8242 20 14.7999C20 16.1083 19.4732 17.3631 18.5355 18.2883C17.5979 19.2135 16.3261 19.7332 15 19.7332Z" fill="white"/>
<path d="M23.125 8.63311C24.1605 8.63311 25 7.80483 25 6.78311C25 5.76138 24.1605 4.93311 23.125 4.93311C22.0895 4.93311 21.25 5.76138 21.25 6.78311C21.25 7.80483 22.0895 8.63311 23.125 8.63311Z" fill="white"/>
</g>
<defs>
<clipPath id="clip0_24_51">
<rect width="30" height="37" fill="white"/>
</clipPath>
</defs>
</svg>
