<svg width="23" height="23" viewBox="0 0 23 23" fill="none" xmlns="http://www.w3.org/2000/svg">
<path d="M22.1222 16.5769L16.7054 14.8244C16.1276 14.6382 15.4956 14.8109 15.0933 15.2699L13.9268 16.6065C13.6217 16.9547 13.1005 17.0276 12.7144 16.7739C11.4048 15.9207 10.1978 14.946 9.12572 13.8712C8.05383 12.7993 7.07626 11.5896 6.22304 10.2826C5.97197 9.89643 6.04204 9.37263 6.39049 9.07011L7.72704 7.90367C8.18606 7.50399 8.35894 6.87224 8.1725 6.29155L6.42006 0.877632C6.2528 0.35138 5.75875 0.000305176 5.21591 0.000305176C5.16732 0.000305176 5.11872 0.00294206 5.06749 0.00840429L2.72646 0.283772C2.22147 0.343105 1.75703 0.60774 1.45186 1.00743C-0.473488 3.54567 -0.0683118 6.61566 0.611997 8.74642C1.50572 11.5385 3.40411 14.4844 5.96131 17.0389C8.51836 19.596 11.4644 21.4942 14.2538 22.3883C16.3843 23.0688 19.4546 23.4763 21.99 21.5486C22.3896 21.2435 22.6543 20.779 22.7136 20.274L22.989 17.933C23.0619 17.3334 22.6972 16.7637 22.1222 16.5774L22.1222 16.5769Z" fill="white"/>
</svg>
