<svg width="40" height="76" viewBox="0 0 40 76" fill="none" xmlns="http://www.w3.org/2000/svg">
<path d="M39.3217 75.0411C38.9218 75.4447 38.3779 75.6731 37.8093 75.6763C37.2395 75.6815 36.692 75.4521 36.2969 75.0411L0.632504 39.3754C0.22789 38.9761 0 38.4317 0 37.863C0 37.2944 0.22789 36.7499 0.632504 36.3506L36.2969 0.678153C36.6931 0.254553 37.2443 0.00978158 37.8241 0.000287826C38.4044 -0.00920755 38.9631 0.216578 39.3735 0.626984C39.7834 1.03688 40.0097 1.59605 39.9997 2.17583C39.9902 2.75558 39.7454 3.30684 39.3218 3.70307L5.16995 37.863L39.3218 72.0149C39.7248 72.4153 39.9512 72.9597 39.9512 73.5278C39.9512 74.0954 39.7248 74.6398 39.3218 75.0402L39.3217 75.0411Z" fill="#469AD9"/>
</svg>
