<svg width="35" height="26" viewBox="0 0 35 26" fill="none" xmlns="http://www.w3.org/2000/svg">
<path d="M29.4842 13.2273C30.4221 12.1506 31.0126 10.7609 31.0126 9.23274C31.0126 5.89789 28.3032 3.18848 24.9684 3.18848C21.6335 3.18848 18.9241 5.89795 18.9241 9.23274C18.9241 10.7612 19.5146 12.1506 20.4526 13.2273C19.6189 13.7136 18.8546 14.339 18.1948 15.0684C17.4306 13.3662 16.1454 11.9422 14.5474 11.0389C15.4854 9.96209 16.0759 8.57243 16.0759 7.04426C16.0759 3.70941 13.3664 1 10.0316 1C6.69677 1 3.98736 3.70947 3.98736 7.04426C3.98736 8.57274 4.57786 9.96209 5.51584 11.0389C2.84105 12.602 1 15.4852 1 18.8199V22.3631C1 22.8494 1.41677 23.2662 1.90309 23.2662H15.9715V24.5514C15.9715 25.0724 16.3883 25.4545 16.8746 25.4545H33.0967C33.583 25.4545 33.9998 25.0377 33.9998 24.5514L34 21.0084C33.9654 17.6736 32.159 14.7906 29.4844 13.2274L29.4842 13.2273ZM24.9335 4.99473C27.2608 4.99473 29.1367 6.87039 29.1367 9.19801C29.1367 11.5254 27.2611 13.4013 24.9335 13.4013C22.6061 13.4013 20.7302 11.5256 20.7302 9.19801C20.7304 6.87046 22.6061 4.99473 24.9335 4.99473ZM9.99664 2.80625C12.324 2.80625 14.1999 4.68191 14.1999 7.00953C14.1999 9.33689 12.3243 11.2128 9.99664 11.2128C7.66928 11.2128 5.79337 9.33714 5.79337 7.00953C5.79337 4.68198 7.66903 2.80625 9.99664 2.80625ZM2.80613 21.4599V18.82C2.80613 15.9368 4.54297 13.4357 7.0094 12.2895C7.87782 12.8104 8.91999 13.0883 9.99677 13.0883C11.0735 13.0883 12.1157 12.8104 12.9841 12.2895C14.8947 13.1579 16.3883 14.86 16.9441 16.9441C16.319 18.16 15.9369 19.5494 15.9369 21.0083V21.46L2.80613 21.4599ZM32.124 23.6484H17.7429V21.0084C17.7429 18.1253 19.4798 15.6242 21.9462 14.4779C22.8146 14.9989 23.8568 15.2768 24.9336 15.2768C26.0104 15.2768 27.0525 14.9989 27.9209 14.4779C30.3874 15.6242 32.1242 18.1254 32.1242 21.0084L32.124 23.6484Z" fill="#0D8CC5" stroke="#0D8CC5" stroke-width="0.5"/>
</svg>
