<svg width="36" height="30" viewBox="0 0 36 30" fill="none" xmlns="http://www.w3.org/2000/svg">
<path d="M7.67898 4.2689C7.91678 4.2689 8.15459 4.2689 8.39921 4.26229C8.46716 4.26229 8.52831 4.26229 8.59626 4.25569C8.7865 4.24908 8.97675 4.24908 9.167 4.24248C9.22135 4.24248 9.27571 4.24248 9.33006 4.23588C9.56108 4.22927 9.79889 4.21607 10.0299 4.20286C10.0775 4.20286 10.1183 4.19625 10.1658 4.19625C10.3764 4.18304 10.5871 4.16984 10.7909 4.15663C15.5063 3.81983 19.1481 2.78303 21.9342 1.99056C23.8707 1.43584 25.3994 1 26.6156 1C28.8578 1 30.9641 1.85188 32.5472 3.39061C34.1303 4.92935 35 6.98311 35 9.1624C35 12.5832 32.8258 15.522 29.7478 16.7302L26.7311 27.6792H32.8326C33.2063 27.6792 33.5121 27.9763 33.5121 28.3396C33.5121 28.7028 33.2063 29 32.8326 29H10.3496C9.97593 29 9.67015 28.7028 9.67015 28.3396C9.67015 27.9763 9.9759 27.6792 10.3496 27.6792H20.691L20.4939 27.6263C20.1338 27.5339 19.9164 27.1707 20.0115 26.8207L20.8269 23.8555C19.8824 23.2083 19.3117 22.165 19.3117 21.0159C19.3117 19.2064 20.7453 17.7139 22.5594 17.5555L22.8244 16.6045C22.5322 16.5253 22.2333 16.4395 21.914 16.347C19.1214 15.548 15.4726 14.5111 10.7508 14.1809C10.5537 14.1677 10.3635 14.1545 10.1664 14.1413C10.1121 14.1413 10.0577 14.1347 10.0034 14.1347C9.77234 14.1215 9.54813 14.1149 9.31711 14.1017C9.26275 14.1017 9.2016 14.0951 9.14724 14.0951C8.96379 14.0885 8.77354 14.0819 8.59009 14.0819C8.52214 14.0819 8.4542 14.0819 8.39304 14.0753C8.15524 14.0687 7.91743 14.0687 7.67965 14.0687C7.30595 14.0687 7.00016 13.7715 7.00016 13.4083V4.92875C7.00016 4.55893 7.30592 4.26833 7.67965 4.26833L7.67898 4.2689ZM8.41959 12.7484C8.56906 12.7484 8.71855 12.755 8.86803 12.755C8.94277 12.755 9.01751 12.7616 9.09225 12.7616C9.18737 12.7616 9.2825 12.7682 9.37762 12.7682C9.46595 12.7682 9.54749 12.7748 9.63581 12.7814C9.71734 12.788 9.79888 12.788 9.87362 12.7946C9.96874 12.8012 10.0639 12.8012 10.159 12.8078H10.2201V5.51718H10.1726C10.0707 5.52378 9.96875 5.53039 9.86004 5.53039C9.7853 5.53699 9.71735 5.53699 9.64261 5.54359C9.55428 5.5502 9.46595 5.5502 9.37763 5.5568C9.28251 5.56341 9.19418 5.56341 9.09905 5.56341C9.02431 5.56341 8.94957 5.57001 8.86803 5.57001C8.71856 5.57661 8.56907 5.57661 8.42639 5.57661H8.36524V12.7417C8.37882 12.7483 8.39921 12.7483 8.41959 12.7483L8.41959 12.7484ZM22.1782 18.9692C21.3085 19.2597 20.6766 20.0654 20.6766 21.0098C20.6766 21.5447 20.8737 22.0466 21.2202 22.4296L21.7773 20.4022L22.1782 18.9692ZM23.0887 20.7786L22.2801 23.7107V23.7173L21.5055 26.5174L25.3648 27.5277L28.2185 17.1795C28.1846 17.1861 28.1574 17.1927 28.1234 17.1993C28.103 17.1993 28.0894 17.2059 28.0691 17.2059C28.0215 17.2125 27.9739 17.2191 27.9264 17.2323C27.906 17.2323 27.8856 17.239 27.8652 17.239C27.8177 17.2456 27.7701 17.2522 27.7293 17.2588C27.7089 17.2588 27.6818 17.2654 27.6614 17.2654C27.6138 17.272 27.5663 17.2786 27.5187 17.2786C27.4983 17.2786 27.4711 17.2852 27.4507 17.2852C27.4032 17.2918 27.3556 17.2918 27.3013 17.2984C27.2809 17.2984 27.2605 17.305 27.2401 17.305C27.1858 17.3116 27.1314 17.3116 27.077 17.3182H27.0295C26.9615 17.3182 26.8936 17.3248 26.8257 17.3248H26.8189H26.6014C26.5335 17.3248 26.4655 17.3248 26.3976 17.3182H26.35C26.2889 17.3182 26.2209 17.3116 26.1598 17.305C26.1326 17.305 26.1054 17.2984 26.0783 17.2984C26.0443 17.2984 26.0035 17.2918 25.9627 17.2852C25.9016 17.2786 25.8337 17.272 25.7657 17.2654C25.7453 17.2654 25.7317 17.2588 25.7114 17.2588C25.2289 17.1927 24.7057 17.0871 24.1418 16.9418L23.0887 20.7786ZM22.3073 15.0729C22.8509 15.2248 23.3605 15.3701 23.8361 15.5022H23.8428C24.4544 15.6673 25.0727 15.8191 25.6434 15.9182H25.657C25.7113 15.9248 25.7657 15.938 25.82 15.9446H25.8336C25.9152 15.9578 25.9967 15.9644 26.0782 15.9776C26.1054 15.9776 26.1394 15.9842 26.1666 15.9842C26.1937 15.9842 26.2209 15.9908 26.2481 15.9908C26.2889 15.9908 26.3296 15.9974 26.3636 15.9974H26.4247C26.4859 15.9974 26.5471 16.004 26.6014 16.004H26.615C26.6965 16.004 26.7781 16.004 26.8596 15.9974H26.9208C27.0023 15.9908 27.0838 15.9908 27.1654 15.9842C27.1857 15.9842 27.2061 15.9776 27.2265 15.9776C27.308 15.971 27.3828 15.9644 27.4643 15.9512C27.4779 15.9512 27.4915 15.9446 27.5119 15.9446C27.5866 15.938 27.6614 15.9248 27.7361 15.9116C27.7633 15.905 27.7837 15.905 27.8108 15.8984L28.0351 15.8588C28.0622 15.8522 28.0962 15.8456 28.1234 15.8389L28.3068 15.7993C28.3544 15.7861 28.402 15.7729 28.4495 15.7663C28.4903 15.7531 28.5243 15.7465 28.565 15.7333C31.4867 14.9012 33.6269 12.2729 33.6269 9.16233C33.6269 7.33306 32.8931 5.61608 31.5682 4.3217C30.25 3.03395 28.4835 2.32071 26.6014 2.32071C25.5822 2.32071 24.135 2.73014 22.3005 3.25186C19.5827 4.02452 16.0765 5.0283 11.5653 5.41792V12.9066C16.0836 13.3029 19.5895 14.3 22.3073 15.0727L22.3073 15.0729Z" fill="#0D8CC5" stroke="#0D8CC5" stroke-width="0.5"/>
<path d="M26.9623 4.36792C29.5986 4.36792 31.7456 6.45471 31.7456 9.02362C31.7456 11.5925 29.5986 13.6793 26.9623 13.6793C24.326 13.6793 22.1789 11.5925 22.1789 9.02362C22.1789 6.46129 24.326 4.36792 26.9623 4.36792ZM26.9623 12.3584C28.8511 12.3584 30.3867 10.8593 30.3867 9.02344C30.3867 7.18094 28.8511 5.68851 26.9623 5.68851C25.0734 5.68851 23.5378 7.18758 23.5378 9.02344C23.5378 10.8659 25.0734 12.3584 26.9623 12.3584Z" fill="#0D8CC5" stroke="#0D8CC5" stroke-width="0.5"/>
<path d="M5.57299 7.23405C5.47787 7.23405 5.37594 7.21424 5.28082 7.16801L2.46107 5.86046C2.12134 5.70197 1.97866 5.31234 2.14173 4.98214C2.3048 4.65194 2.70567 4.51327 3.04541 4.67176L5.86516 5.97931C6.20489 6.1378 6.34757 6.52743 6.1845 6.85763C6.06899 7.09537 5.82439 7.23405 5.57299 7.23405H5.57299Z" fill="#0D8CC5" stroke="#0D8CC5" stroke-width="0.5"/>
<path d="M1.72027 8.5479L4.93406 8.48186C5.30776 8.47526 5.62031 8.76582 5.62708 9.12905C5.63386 9.49228 5.33492 9.79605 4.96121 9.80263L1.74742 9.86867H1.73383C1.36693 9.86867 1.06118 9.58471 1.05435 9.22148C1.04751 8.85825 1.34651 8.56106 1.72023 8.5479H1.72027Z" fill="#0D8CC5" stroke="#0D8CC5" stroke-width="0.5"/>
<path d="M2.8551 12.4773L5.59329 11.0509C5.92622 10.8792 6.3339 10.9981 6.51057 11.3216C6.68724 11.6452 6.56492 12.0415 6.23199 12.2132L3.4938 13.6396C3.39189 13.6924 3.28318 13.7189 3.17447 13.7189C2.92986 13.7189 2.69885 13.5934 2.57655 13.3689C2.39989 13.0519 2.52219 12.6557 2.85512 12.4773H2.8551Z" fill="#0D8CC5" stroke="#0D8CC5" stroke-width="0.5"/>
</svg>
