<svg width="29" height="33" viewBox="0 0 29 33" fill="none" xmlns="http://www.w3.org/2000/svg">
<path d="M28.1769 28.2852V1.29391C28.1769 0.797105 27.7739 0.394196 27.2771 0.394196H2.08526C1.58846 0.394196 1.18555 0.797105 1.18555 1.29391V28.2852C1.18555 28.782 1.58846 29.1849 2.08526 29.1849H4.78439V30.9843C4.78439 31.4811 5.1873 31.8841 5.6841 31.8841H11.0824C11.5792 31.8841 11.9821 31.4811 11.9821 30.9843V29.1849H17.3803V30.9843C17.3803 31.4811 17.7832 31.8841 18.28 31.8841H23.6783C24.1751 31.8841 24.578 31.4811 24.578 30.9843V29.1849H27.2771C27.7739 29.1849 28.1769 28.782 28.1769 28.2852ZM10.1826 30.0846H6.58381V29.1849H10.1826V30.0846ZM22.7786 30.0846H19.1798V29.1849H22.7786V30.0846ZM26.3774 27.3855H2.98497V2.19362H26.3774V27.3855Z" fill="#0D8CC5" stroke="#0D8CC5" stroke-width="0.5"/>
<path d="M4.78448 22.8869H5.68419V25.1362C5.68419 25.633 6.0871 26.0359 6.5839 26.0359H24.1282C24.6251 26.0359 25.028 25.633 25.028 25.1362V4.44289C25.028 3.94609 24.6251 3.54318 24.1282 3.54318H6.5839C6.0871 3.54318 5.68419 3.94609 5.68419 4.44289V6.69217H4.78448C4.28768 6.69217 3.88477 7.09508 3.88477 7.59188V10.291C3.88477 10.7878 4.28768 11.1907 4.78448 11.1907H5.68419V18.3884H4.78448C4.28768 18.3884 3.88477 18.7913 3.88477 19.2881V21.9872C3.88477 22.484 4.28768 22.8869 4.78448 22.8869ZM5.68419 8.49159H7.48361V9.3913H5.68419V8.49159ZM7.48361 11.1907H8.38332C8.88012 11.1907 9.28303 10.7878 9.28303 10.291V7.59188C9.28303 7.09508 8.88012 6.69217 8.38332 6.69217H7.48361V5.3426H23.2285V24.2365H7.48361V22.8869H8.38332C8.88012 22.8869 9.28303 22.484 9.28303 21.9872V19.2881C9.28303 18.7913 8.88012 18.3884 8.38332 18.3884H7.48361V11.1907ZM5.68419 20.1878H7.48361V21.0875H5.68419V20.1878Z" fill="#0D8CC5" stroke="#0D8CC5" stroke-width="0.5"/>
<path d="M15.581 17.3313V19.2881H17.3804V17.3313C18.1451 17.0596 18.7508 16.4539 19.0225 15.6892H20.9793V13.8898H19.0225C18.7509 13.1252 18.1451 12.5194 17.3804 12.2478V10.291H15.581V12.2478C14.8164 12.5194 14.2106 13.1251 13.939 13.8898H11.9822V15.6892H13.939C14.2106 16.4538 14.8163 17.0596 15.581 17.3313ZM16.4807 13.8898C16.9768 13.8898 17.3804 14.2932 17.3804 14.7895C17.3804 15.2858 16.9768 15.6892 16.4807 15.6892C15.9847 15.6892 15.581 15.2858 15.581 14.7895C15.581 14.2932 15.9847 13.8898 16.4807 13.8898Z" fill="#0D8CC5" stroke="#0D8CC5" stroke-width="0.5"/>
</svg>
