<svg width="28" height="33" viewBox="0 0 28 33" fill="none" xmlns="http://www.w3.org/2000/svg">
<path d="M21.6995 20.231L17.9605 20.4313L17.0926 15.8242L21.1655 15.3568C22.3673 15.2234 23.2353 14.155 23.1018 12.9531C22.9683 11.7513 21.8999 10.8833 20.6981 11.0168L16.358 11.551L16.1578 10.3492C15.8907 8.88017 14.4885 7.87863 13.0195 8.14571C11.5506 8.41282 10.549 9.81494 10.8161 11.2839L13.0861 23.7698C13.3532 25.105 14.5551 26.0398 15.8904 25.9732L20.0968 25.7061L21.9663 30.3133C22.5671 31.7154 24.1029 32.383 25.505 31.7822C26.9071 31.1814 27.5748 29.6456 26.974 28.2435L24.3031 21.8337C23.9697 20.8321 22.9012 20.1644 21.6994 20.231H21.6995Z" fill="#0D8CC5"/>
<path d="M15.49 3.27163C15.49 5.0787 14.0253 6.54351 12.2184 6.54351C10.4115 6.54351 8.94678 5.07876 8.94678 3.27163C8.94678 1.46475 10.4115 0 12.2184 0C14.0253 0 15.49 1.46475 15.49 3.27163Z" fill="#0D8CC5"/>
<path d="M1.33508 11.2173H4.07273C5.408 11.2173 4.8072 13.0199 4.94068 15.2234C3.73883 16.9594 3.00437 19.096 3.00437 21.3661C3.00437 27.2418 7.81181 32.0492 13.6875 32.0492C16.2246 32.0492 18.4949 31.1813 20.2976 29.7124L19.3628 27.3755C17.8939 28.7777 15.891 29.6455 13.6875 29.6455C5.0075 29.6455 2.13643 17.8941 9.94849 13.9548L9.48112 11.5511C8.81348 11.8182 8.21244 12.1519 7.61164 12.5527V12.0184C7.61164 10.0821 6.00923 8.47974 4.07293 8.47974L1.33527 8.47997C0.600804 8.47997 6.76733e-08 9.08077 6.76733e-08 9.81524C-0.00023285 10.5497 0.600804 11.2174 1.33527 11.2174L1.33508 11.2173Z" fill="#0D8CC5"/>
</svg>
