<svg width="26" height="36" viewBox="0 0 26 36" fill="none" xmlns="http://www.w3.org/2000/svg">
<path d="M13 0.5C8.87275 0.5 5.49996 3.87278 5.49996 8C5.50164 8.25251 5.56079 8.50111 5.58786 8.75193C2.68971 9.82171 0.5005 12.3181 0.5 15.4952C0.5 19.6224 3.87278 22.9952 8 22.9952H8.00028H8.0053C8.86301 22.9927 9.69059 22.7578 10.4955 22.4676C10.9076 22.6152 11.3247 22.7477 11.7502 22.8437V34.0008H4.25023V35.4997H21.7502V34.0008H14.2502V22.8387C14.6715 22.7438 15.0867 22.6138 15.4955 22.4673C16.3041 22.7572 17.1387 22.9938 18.0002 22.995C22.1274 22.995 25.5002 19.6222 25.5002 15.495C25.4977 12.3197 23.3094 9.82503 20.4124 8.75638C20.4394 8.50555 20.4989 8.25722 20.5003 8.00474C20.5003 3.87753 17.1275 0.504743 13.0003 0.504743L13 0.5ZM13 3C15.7762 3 18 5.22378 18 8C17.9975 8.36105 17.9531 8.72235 17.873 9.07421C17.7971 9.40792 17.861 9.75808 18.0502 10.0432C18.2394 10.3284 18.5371 10.5234 18.8741 10.5831C21.267 11.0083 22.9977 13.07 23 15.5003C23 18.2765 20.7762 20.5003 18 20.5003C17.31 20.4994 16.6297 20.3527 15.998 20.0756V20.0753C15.6777 19.9344 15.3128 19.9344 14.9922 20.0753C14.3644 20.3507 13.6855 20.4975 13 20.5C12.31 20.4991 11.6297 20.3524 10.998 20.0753C10.6777 19.9344 10.3128 19.9344 9.99219 20.0753C9.3644 20.3507 8.68555 20.4975 7.99998 20.5C5.22376 20.5 2.99998 18.2762 2.99998 15.5C3.00054 13.0683 4.73184 11.0039 7.12584 10.5781L7.12611 10.5784C7.46289 10.5187 7.76088 10.3237 7.95004 10.0385C8.13921 9.75334 8.20311 9.4029 8.12694 9.0695C8.04686 8.71906 8.00306 8.35968 7.99999 8.00028C7.99999 5.22407 10.2238 3.00028 13 3.00028L13 3Z" fill="#469AD9" stroke="#469AD9" stroke-width="0.5"/>
</svg>
