<svg width="35" height="29" viewBox="0 0 35 29" fill="none" xmlns="http://www.w3.org/2000/svg">
<path d="M33.5296 2.86341e-05H1.08151C0.48397 2.86341e-05 0 0.495018 0 1.10612V22.9197C0 23.2133 0.113926 23.4946 0.316872 23.7021C0.51945 23.9093 0.794824 24.0258 1.08153 24.0258H14.9048V26.3873L11.4112 26.3877C10.9668 26.3862 10.5406 26.5656 10.226 26.8862C9.91139 27.2068 9.73485 27.6423 9.73485 28.0968V28.8492L24.8773 28.8488V28.0968C24.8773 27.6443 24.7023 27.2106 24.3899 26.89C24.0776 26.5698 23.6539 26.3892 23.2118 26.3877H19.7073V24.0258H33.5306C33.8173 24.0258 34.0927 23.9093 34.2953 23.7021C34.4982 23.4945 34.6121 23.2133 34.6121 22.9197V1.10611C34.6121 0.812502 34.4982 0.531255 34.2953 0.323688C34.0927 0.116505 33.8173 0 33.5306 0L33.5296 2.86341e-05ZM31.3666 20.7074H3.24491V3.3176H31.3666V20.7074Z" fill="#0D8CC5"/>
</svg>
