<svg width="21" height="25" viewBox="0 0 21 25" fill="none" xmlns="http://www.w3.org/2000/svg">
<path d="M16.4392 15.3264L13.6066 15.4781L12.9491 11.9879L16.0346 11.6338C16.9451 11.5327 17.6026 10.7233 17.5015 9.81284C17.4004 8.90235 16.591 8.24482 15.6805 8.34594L12.3926 8.75064L12.2409 7.84015C12.0385 6.72729 10.9763 5.96855 9.86347 6.17088C8.7506 6.37323 7.99186 7.43545 8.19419 8.54831L9.91391 18.0073C10.1163 19.0189 11.0268 19.727 12.0383 19.6766L15.225 19.4742L16.6413 22.9645C17.0964 24.0267 18.2599 24.5325 19.3221 24.0773C20.3844 23.6222 20.8901 22.4587 20.435 21.3965L18.4116 16.5405C18.159 15.7818 17.3496 15.276 16.4391 15.3264H16.4392Z" fill="#469AD9"/>
<path d="M11.735 2.47851C11.735 3.8475 10.6253 4.9572 9.25646 4.9572C7.88761 4.9572 6.77795 3.84754 6.77795 2.47851C6.77795 1.10966 7.88761 0 9.25646 0C10.6253 0 11.735 1.10966 11.735 2.47851Z" fill="#469AD9"/>
<path d="M1.01142 8.49796H3.0854C4.09697 8.49796 3.64182 9.86361 3.74294 11.5329C2.83245 12.8481 2.27604 14.4667 2.27604 16.1865C2.27604 20.6377 5.91804 24.2797 10.3693 24.2797C12.2914 24.2797 14.0113 23.6222 15.377 22.5094L14.6688 20.739C13.556 21.8013 12.0386 22.4588 10.3693 22.4588C3.79356 22.4588 1.61851 13.5562 7.53674 10.5718L7.18266 8.75083C6.67688 8.95318 6.22155 9.20599 5.76639 9.50962V9.10492C5.76639 7.63801 4.55245 6.42407 3.08555 6.42407L1.01157 6.42425C0.455155 6.42425 5.12677e-08 6.8794 5.12677e-08 7.43581C-0.000176401 7.99223 0.455155 8.49805 1.01157 8.49805L1.01142 8.49796Z" fill="#469AD9"/>
</svg>
