<svg xmlns="http://www.w3.org/2000/svg" xmlns:xlink="http://www.w3.org/1999/xlink"><defs><clipPath id="clip0_24_51"><path fill="#fff" d="M0 0h30v37H0z"/></clipPath></defs><symbol id="arrow" viewBox="0 0 40 76"><path d="M39.322 75.041c-.4.404-.944.632-1.513.635a2.072 2.072 0 01-1.512-.635L.633 39.375a2.124 2.124 0 010-3.024L36.297.678a2.14 2.14 0 113.025 3.025L5.17 37.863l34.152 34.152a2.132 2.132 0 010 3.025v.001z" fill="#469AD9"/></symbol><symbol id="check" viewBox="0 0 22 18"><path d="M0 9.747L2.444 6.57 8.8 11.947 19.067.458 22 3.148 9.044 17.324 0 9.747z" fill="#055EA0"/></symbol><symbol id="clock" viewBox="0 0 347.442 347.442"><path d="M173.721 347.442c95.919 0 173.721-77.802 173.721-173.721S269.64 0 173.721 0 0 77.802 0 173.721s77.802 173.721 173.721 173.721zm-12.409-272.99c0-6.825 5.584-12.409 12.409-12.409s12.409 5.584 12.409 12.409v93.313l57.39 45.912c5.336 4.281 6.204 12.098 1.923 17.434a12.342 12.342 0 01-9.679 4.653c-2.73 0-5.46-.869-7.755-2.73L165.966 183.4c-2.916-2.358-4.653-5.894-4.653-9.679V74.452z" xmlns="http://www.w3.org/2000/svg"/></symbol><symbol id="close-modal" viewBox="0 0 21 20"><path fill-rule="evenodd" clip-rule="evenodd" d="M10.046 10.047l-9.339 9.34L0 18.678l9.34-9.34L.706.708 1.414 0l8.633 8.633L18.678 0l.707.707-8.632 8.633 9.339 9.34-.707.706-9.34-9.339z" fill="#469AD9"/></symbol><symbol id="close" viewBox="0 0 25 25"><circle cx="12.5" cy="12.5" r="12" stroke="#055EA0"/><path fill-rule="evenodd" clip-rule="evenodd" d="M17.607 7l.707.707-4.95 4.95 4.95 4.95-.707.707-4.95-4.95-4.95 4.95L7 17.607l4.95-4.95L7 7.707 7.707 7l4.95 4.95L17.607 7z" fill="#055EA0"/><path fill-rule="evenodd" clip-rule="evenodd" d="M17.607 7l.707.707-4.95 4.95 4.95 4.95-.707.707-4.95-4.95-4.95 4.95L7 17.607l4.95-4.95L7 7.707 7.707 7l4.95 4.95L17.607 7z" fill="#055EA0"/></symbol><symbol id="f1" viewBox="0 0 35 26"><path d="M29.484 13.227c.938-1.076 1.529-2.466 1.529-3.994a6.048 6.048 0 00-6.045-6.045 6.049 6.049 0 00-6.044 6.045c0 1.528.59 2.918 1.529 3.994a9.54 9.54 0 00-2.258 1.841 8.747 8.747 0 00-3.648-4.03c.938-1.076 1.529-2.466 1.529-3.994A6.049 6.049 0 0010.032 1a6.049 6.049 0 00-6.045 6.044c0 1.529.59 2.918 1.529 3.995C2.84 12.602 1 15.485 1 18.819v3.544a.92.92 0 00.903.903h14.069v1.285c0 .521.416.904.903.904h16.222A.92.92 0 0034 24.55v-3.543a9.096 9.096 0 00-4.516-7.78h0zm-4.55-8.232a4.195 4.195 0 014.203 4.203 4.195 4.195 0 01-4.204 4.203 4.196 4.196 0 01-4.203-4.203 4.196 4.196 0 014.203-4.203zM9.996 2.806A4.195 4.195 0 0114.2 7.01a4.195 4.195 0 01-4.203 4.203A4.196 4.196 0 015.793 7.01a4.195 4.195 0 014.204-4.204zM2.807 21.46v-2.64c0-2.883 1.736-5.384 4.202-6.53.869.52 1.911.798 2.988.798 1.076 0 2.119-.278 2.987-.798 1.91.868 3.404 2.57 3.96 4.654a8.908 8.908 0 00-1.007 4.064v.452H2.807zm29.317 2.188H17.743v-2.64c0-2.883 1.737-5.384 4.203-6.53.869.52 1.91.799 2.988.799 1.076 0 2.118-.278 2.987-.8 2.466 1.147 4.203 3.648 4.203 6.531v2.64z" fill="#0D8CC5" stroke="#0D8CC5" stroke-width=".5"/></symbol><symbol id="f10" viewBox="0 0 36 30"><path d="M7.679 4.269c.238 0 .476 0 .72-.007.068 0 .13 0 .197-.006.19-.007.38-.007.571-.014.054 0 .109 0 .163-.006.231-.007.469-.02.7-.033.048 0 .088-.007.136-.007l.625-.04c4.715-.336 8.357-1.373 11.143-2.165C23.871 1.436 25.4 1 26.616 1a8.46 8.46 0 015.931 2.39A7.998 7.998 0 0135 9.163c0 3.421-2.174 6.36-5.252 7.568L26.73 27.68h6.102c.373 0 .68.296.68.66 0 .363-.307.66-.68.66H10.35a.672.672 0 01-.68-.66c0-.364.306-.66.68-.66h10.34l-.197-.054a.66.66 0 01-.482-.805l.815-2.966a3.429 3.429 0 01-1.515-2.84c0-1.809 1.433-3.301 3.247-3.46l.265-.95c-.292-.08-.59-.166-.91-.258-2.793-.799-6.441-1.836-11.163-2.166l-.585-.04c-.054 0-.108-.006-.163-.006-.23-.014-.455-.02-.686-.033-.054 0-.115-.007-.17-.007a15.692 15.692 0 00-.557-.013c-.068 0-.136 0-.197-.007-.238-.006-.476-.006-.713-.006a.672.672 0 01-.68-.66v-8.48c0-.37.306-.66.68-.66h-.001zm.74 8.48c.15 0 .3.006.449.006.075 0 .15.007.224.007.095 0 .19.006.286.006.088 0 .17.007.258.013.081.007.163.007.238.014.095.006.19.006.285.013h.061v-7.29h-.047c-.102.006-.204.012-.313.012-.075.007-.143.007-.217.014-.089.006-.177.006-.265.013-.095.006-.184.006-.279.006-.075 0-.15.007-.231.007-.15.007-.299.007-.442.007h-.06v7.165a.136.136 0 00.054.006h0zm13.76 6.22c-.87.29-1.502 1.096-1.502 2.04 0 .536.197 1.038.543 1.42l.557-2.027.401-1.433zm.91 1.81l-.809 2.932v.006l-.774 2.8 3.859 1.01 2.854-10.348c-.034.007-.062.014-.096.02-.02 0-.034.007-.054.007a1.08 1.08 0 00-.143.026c-.02 0-.04.007-.06.007-.048.007-.096.013-.137.02-.02 0-.047.006-.068.006a.976.976 0 01-.142.014c-.02 0-.048.006-.068.006-.048.007-.095.007-.15.013-.02 0-.04.007-.06.007-.055.007-.11.007-.164.013h-.048c-.067 0-.135.007-.203.007H26.6c-.067 0-.136 0-.203-.007h-.048c-.061 0-.13-.006-.19-.013-.027 0-.055-.007-.082-.007a.71.71 0 01-.115-.013 18.924 18.924 0 00-.197-.02c-.02 0-.034-.006-.055-.006a13.877 13.877 0 01-1.57-.317l-1.052 3.837zm-.782-5.706c.544.152 1.053.297 1.53.43h.006c.611.164 1.23.316 1.8.415h.014c.054.007.109.02.163.027h.014c.081.013.163.02.244.033.027 0 .061.006.089.006.027 0 .054.007.081.007.04 0 .082.006.116.006h.06c.062 0 .123.007.177.007h.014c.082 0 .163 0 .245-.007h.06c.082-.006.164-.006.245-.013.02 0 .041-.006.062-.006a2.91 2.91 0 00.237-.027c.014 0 .027-.006.048-.006.075-.007.15-.02.224-.033.027-.007.048-.007.075-.014l.224-.04c.027-.006.061-.012.088-.02l.184-.039c.047-.013.095-.026.143-.033.04-.013.074-.02.115-.033 2.922-.832 5.062-3.46 5.062-6.57 0-1.83-.734-3.547-2.059-4.841-1.318-1.288-3.085-2.001-4.967-2.001-1.019 0-2.466.41-4.3.93-2.718.774-6.224 1.777-10.736 2.167v7.489c4.519.396 8.025 1.393 10.742 2.166h0z" fill="#0D8CC5" stroke="#0D8CC5" stroke-width=".5"/><path d="M26.962 4.368c2.637 0 4.784 2.087 4.784 4.656 0 2.569-2.147 4.655-4.784 4.655-2.636 0-4.783-2.087-4.783-4.655 0-2.563 2.147-4.656 4.783-4.656zm0 7.99c1.89 0 3.425-1.499 3.425-3.335 0-1.842-1.536-3.334-3.425-3.334-1.889 0-3.424 1.499-3.424 3.334 0 1.843 1.535 3.335 3.424 3.335zM5.573 7.234a.671.671 0 01-.292-.066L2.46 5.86a.648.648 0 01-.32-.878.683.683 0 01.904-.31l2.82 1.307c.34.159.483.548.32.879a.68.68 0 01-.612.376h0zM1.72 8.548l3.214-.066a.673.673 0 01.693.647.671.671 0 01-.666.674l-3.214.066h-.013a.67.67 0 01-.68-.648c-.006-.363.293-.66.666-.673h0zm1.135 3.929l2.738-1.426a.685.685 0 01.918.27.647.647 0 01-.279.892L3.494 13.64a.692.692 0 01-.32.079.674.674 0 01-.597-.35.65.65 0 01.278-.892h0z" fill="#0D8CC5" stroke="#0D8CC5" stroke-width=".5"/></symbol><symbol id="f11" viewBox="0 0 30 30"><path d="M23.938.76H6.062C3.022.76.56 3.222.56 6.232v17.906a5.5 5.5 0 005.502 5.502h17.906a5.5 5.5 0 005.503-5.502V6.232A5.54 5.54 0 0023.938.76zm2.614 23.378a2.614 2.614 0 01-2.614 2.614H6.062a2.614 2.614 0 01-2.614-2.614V6.232c0-1.429 1.155-2.584 2.614-2.584h17.906c1.429 0 2.614 1.155 2.614 2.584v17.906h-.03z" fill="#0D8CC5"/><path d="M15.395 6.84h-3.8a1.46 1.46 0 00-1.459 1.46v14.682c0 .304.244.578.578.578h1.733a.577.577 0 00.577-.578V17.39h2.523c3.04 0 5.472-2.554 5.26-5.624-.152-2.797-2.615-4.925-5.412-4.925zm.183 7.66h-2.523V9.729h2.523a2.374 2.374 0 012.37 2.371 2.381 2.381 0 01-2.37 2.402z" fill="#0D8CC5"/></symbol><symbol id="f12" viewBox="0 0 29 33"><path d="M28.177 28.285V1.294a.9.9 0 00-.9-.9H2.085a.9.9 0 00-.9.9v26.991a.9.9 0 00.9.9h2.7v1.8a.9.9 0 00.9.9h5.397a.9.9 0 00.9-.9v-1.8h5.398v1.8a.9.9 0 00.9.9h5.398a.9.9 0 00.9-.9v-1.8h2.7a.9.9 0 00.899-.9zm-17.994 1.8h-3.6v-.9h3.6v.9zm12.596 0h-3.6v-.9h3.6v.9zm3.598-2.7H2.985V2.195h23.392v25.192z" fill="#0D8CC5" stroke="#0D8CC5" stroke-width=".5"/><path d="M4.784 22.887h.9v2.25a.9.9 0 00.9.899h17.544a.9.9 0 00.9-.9V4.443a.9.9 0 00-.9-.9H6.584a.9.9 0 00-.9.9v2.25h-.9a.9.9 0 00-.9.899v2.699a.9.9 0 00.9.9h.9v7.197h-.9a.9.9 0 00-.9.9v2.7a.9.9 0 00.9.899zm.9-14.395h1.8v.9h-1.8v-.9zm1.8 2.699h.9a.9.9 0 00.899-.9v-2.7a.9.9 0 00-.9-.899h-.9v-1.35H23.23v18.895H7.484v-1.35h.9a.9.9 0 00.899-.9v-2.699a.9.9 0 00-.9-.9h-.9v-7.197zm-1.8 8.997h1.8v.9h-1.8v-.9z" fill="#0D8CC5" stroke="#0D8CC5" stroke-width=".5"/><path d="M15.581 17.331v1.957h1.8v-1.957a2.71 2.71 0 001.642-1.642h1.956v-1.8h-1.956a2.709 2.709 0 00-1.643-1.641V10.29h-1.799v1.957a2.709 2.709 0 00-1.642 1.642h-1.957v1.8h1.957c.272.764.877 1.37 1.642 1.641zm.9-3.441a.9.9 0 010 1.8.9.9 0 010-1.8z" fill="#0D8CC5" stroke="#0D8CC5" stroke-width=".5"/></symbol><symbol id="f13" viewBox="0 0 36 32"><path d="M34.296 3.058H16.254A2.332 2.332 0 0013.926.73H6.942a2.332 2.332 0 00-2.328 2.328h-2.91A1.166 1.166 0 00.54 4.222v23.28a1.165 1.165 0 001.164 1.164h2.91a2.33 2.33 0 002.328 2.328h6.984a2.33 2.33 0 002.328-2.328h18.042a1.165 1.165 0 001.164-1.164V4.222a1.165 1.165 0 00-1.164-1.164h0zM4.614 27.502h-2.91V4.222h2.91v23.28zM15.09 3.64v25.026a1.164 1.164 0 01-1.164 1.164H6.942a1.164 1.164 0 01-1.164-1.164V3.058a1.166 1.166 0 011.164-1.164h6.984a1.166 1.166 0 011.164 1.164v.582zm19.206 23.862H16.254V4.222l18.042-.001V27.5z" fill="#0D8CC5" stroke="#0D8CC5"/></symbol><symbol id="f14" viewBox="0 0 27 34"><path d="M26.097 3.535a.795.795 0 00.215-.517V.906a.755.755 0 00-.732-.733h-9.01a.755.755 0 00-.734.733v2.112c0 .173.087.345.173.474l1.552 1.725v11.64c-.906.604-2.329 1.336-3.234.905-.086-.043-.13-.086-.215-.13-1.854-1.551-.82-4.569.172-7.457.82-2.328 1.509-4.354.69-5.734-.086-.172-.216-.301-.302-.43-.345-.389-.862-.647-1.509-.777-2.026-.43-3.535.431-4.785 1.983-.086.13-.215.259-.302.388-.086.13-.215.26-.301.388 0 .043-.044.043-.044.087a11.671 11.671 0 00-.905 1.595C6.136 6.942 4.8 6.252 3.68 6.252c-.431 0-.819.087-1.164.259-.776.431-1.293 1.293-1.509 2.457-.13.905-.043 1.854.216 2.414.086.216 1.164 1.811 2.673 4.053-.087.258-.173.517-.26.733-.172.43-.473.862-.99.776-.475-.087-.992-.604-.992-1.25a.755.755 0 00-.733-.734.755.755 0 00-.733.733c0 1.294.991 2.458 2.198 2.673.863.173 1.94-.172 2.544-1.465a6394.49 6394.49 0 0011.037 16.424.741.741 0 00.603.345.755.755 0 00.733-.733c0-.13-.043-.301-.13-.388-1.034-2.586-7.587-18.753-9.44-23.237.646-1.423 1.25-2.586 1.982-3.363.043-.086.13-.129.172-.172.087-.086.13-.172.216-.215.302-.302.646-.518.992-.647 0 0 .043 0 .043-.043a2.04 2.04 0 01.474-.172h.086c.173-.044.302-.044.474-.044h.13c.172 0 .388 0 .603.044.647.129.82.43.862.517.475.819-.172 2.716-.819 4.526-1.034 3.061-2.328 6.855.26 9.054.56.474 1.163.646 1.81.646.905 0 1.854-.388 2.586-.776v1.51l-1.508 1.422c-.173.087-.26.259-.26.475v2.112c0 .388.346.733.734.733h9.01a.755.755 0 00.733-.733v-2.112c0-.173-.087-.345-.172-.475l-1.552-1.724V4.958l1.509-1.423zM13.25 26.643C8.206 19.14 2.817 11.123 2.559 10.606c-.087-.13-.173-.776-.087-1.466.13-.69.388-1.207.733-1.38.13-.086.302-.086.474-.086.949 0 2.07.82 2.242 1.164.043.043.086.173.172.389-.215.474-.388.948-.56 1.422l-.345-.69c-.172-.344-.646-.517-.991-.301-.345.172-.475.646-.302.991l1.164 2.199c.13.259.388.388.646.388.13 0 .216-.043.345-.086.259-.13.388-.431.388-.69 0 0 0-.043.043-.043.173-.431.302-.862.475-1.25 1.38 3.319 3.88 9.57 6.294 15.476h0zm11.597-4.311v1.12h-7.544v-1.077l1.465-1.38h4.872l1.207 1.337zM23.08 9.14v1.983l-4.01-2.846V6.294l4.01 2.846zm-2.543-3.58h2.543v1.811l-2.543-1.81zm2.543 7.33v1.982l-4.052-2.802v-2.026l4.052 2.845zm0 3.75v1.983l-4.052-2.758v-1.984l4.052 2.76zm-1.25 2.889h-2.76v-1.897l2.76 1.897zm1.552-15.434H18.51l-1.208-1.337V1.64h7.545v1.077l-1.466 1.38z" fill="#0D8CC5" stroke="#0D8CC5" stroke-width=".5"/></symbol><symbol id="f15" viewBox="0 0 17 17"><path fill-rule="evenodd" clip-rule="evenodd" d="M16.627 4.863c0-4.586-7.04-4.586-7.04 0v4.53h.533v3.397c0 3.888 5.992 3.888 5.992 0V9.393h.515v-4.53h0zm-15.341 0v4.53h.534v3.397c0 3.888 5.992 3.888 5.992 0V9.393h.534v-4.53c0-4.586-7.06-4.586-7.06 0h0zm5.572 7.927c0 2.661-4.084 2.661-4.084 0V9.393h4.084v3.397zm.534-4.341H2.24V4.863c0-3.34 5.152-3.34 5.152 0v3.586zm3.148-3.586c0-3.34 5.152-3.34 5.152 0v3.586H10.54V4.863zm4.618 7.927c0 2.661-4.103 2.661-4.103 0V9.393h4.103v3.397z" fill="#0D8CC5" stroke="#0D8CC5"/></symbol><symbol id="f16" viewBox="0 0 32 32"><path d="M20.547.397H4.109A2.105 2.105 0 002.01 2.495v2.798h-.7a1.03 1.03 0 00-1.049 1.05c0 .594.455 1.049 1.05 1.049h.699v2.798h-.7a1.03 1.03 0 00-1.049 1.049c0 .595.455 1.05 1.05 1.05h.699v2.797h-.7a1.03 1.03 0 00-1.049 1.05c0 .594.455 1.049 1.05 1.049h.699v2.798h-.7a1.03 1.03 0 00-1.049 1.049c0 .595.455 1.05 1.05 1.05h.699v2.797h-.7a1.03 1.03 0 00-1.049 1.05c0 .594.455 1.049 1.05 1.049h.699v2.798c0 1.154.944 2.098 2.099 2.098h16.438a2.105 2.105 0 002.098-2.098V2.496a2.105 2.105 0 00-2.098-2.1zm-3.498 29.378H4.11v-2.798h.699a1.03 1.03 0 001.05-1.049 1.03 1.03 0 00-1.05-1.05h-.7v-2.797h.7a1.03 1.03 0 001.05-1.05 1.03 1.03 0 00-1.05-1.049h-.7v-2.798h.7a1.03 1.03 0 001.05-1.05 1.03 1.03 0 00-1.05-1.049h-.7v-2.798h.7a1.03 1.03 0 001.05-1.049 1.03 1.03 0 00-1.05-1.05h-.7V7.392h.7a1.03 1.03 0 001.05-1.05 1.03 1.03 0 00-1.05-1.049h-.7V2.494H17.05v27.281zm3.498 0h-2.099V2.495h2.099v27.28zM30.689.397h-3.497a1.03 1.03 0 00-1.05 1.049v1.399h-1.748a1.03 1.03 0 00-1.05 1.05V8.09c0 .595.455 1.05 1.05 1.05a1.03 1.03 0 001.05-1.05V4.943h.698v22.909c0 .175.035.384.14.524l1.75 2.973c.21.315.524.525.909.525.384 0 .699-.21.909-.525l1.748-2.973a.987.987 0 00.14-.524V1.446A1.03 1.03 0 0030.69.396zM29.64 27.572l-.7 1.189-.699-1.19V2.496h1.399v25.077z" fill="#0D8CC5"/></symbol><symbol id="f17" viewBox="0 0 21 27"><path fill-rule="evenodd" clip-rule="evenodd" d="M4.51 1.89v-.805l.004-.075A.773.773 0 015.2.324c.024-.002.05-.002.075-.003h9.888l.075.003c.025.004.05.006.074.011a.772.772 0 01.611.675c.004.025.004.05.004.075v.71h.376a3.61 3.61 0 013.359 2.427c.125.364.189.744.196 1.129.006 1.01.006 2.02 0 3.031a4.693 4.693 0 01-3.93 4.576v8.311l.496.018.06.007a.773.773 0 01.643.695l.002.06v2.876c-.002.053-.001.066-.01.119a.768.768 0 01-.696.643c-.019 0-.039 0-.059.002H4.074l-.06-.003a.767.767 0 01-.695-.643c-.009-.052-.008-.065-.01-.118V22.05c0-.02 0-.04.002-.06a.772.772 0 01.643-.695c.053-.009.066-.008.12-.01h.436v-12.8C3.18 6.727 1.934 4.906.644 3.119a.766.766 0 01.458-1.195.927.927 0 01.12-.016A77.338 77.338 0 014.51 1.89h0zM15.6 22.814H4.838v1.346H15.6v-1.346zm-1.201-20.32V1.85h-8.36v.655c.01.041.015.084.018.126.05 1.874.002 3.748.002 5.622a.977.977 0 01-.02.165v12.85h.669c2.564-.029 5.128-.08 7.69-.036v-8.91a.823.823 0 01-.003-.066V2.558c0-.021.001-.043.004-.064h0zm1.528 8.903a3.21 3.21 0 00.907-.385 3.194 3.194 0 001.329-1.674 3.25 3.25 0 00.166-.976c.006-1.015.03-2.03-.002-3.045a2.07 2.07 0 00-2.044-1.993c-.118-.002-.237 0-.356 0v8.073zM2.76 3.435L4.51 5.86V3.435H2.76z" fill="#0D8CC5" stroke="#0D8CC5" stroke-width=".7"/></symbol><symbol id="f18" viewBox="0 0 32 36"><path d="M15.533.819L5.915.529a1.5 1.5 0 00-1.064.435 1.5 1.5 0 00-.435 1.063v2.03c0 .387.145.773.435 1.063.194.194.484.339.774.387v1.498c-1.595 0-2.9 1.305-2.9 2.949v2.851H2.58a2.269 2.269 0 00-2.272 2.272v17.641a2.269 2.269 0 002.272 2.271h10.439a2.269 2.269 0 002.271-2.271V15.029a2.269 2.269 0 00-2.271-2.271h-.145V9.906c0-1.595-1.305-2.9-2.9-2.948V5.363l5.558-.194c.822-.048 1.45-.677 1.45-1.498V2.269c0-.773-.628-1.45-1.45-1.45h0zM8.04 6.957h-.483V5.46h.483v1.498zm5.317 22.716H7.8V18.557h5.558v11.116zm0-14.644v1.595H6.833a.97.97 0 00-.967.966v13.05a.97.97 0 00.967.966h6.525v1.112a.33.33 0 01-.338.338H2.532a.33.33 0 01-.338-.338v-17.69a.33.33 0 01.338-.338h10.44c.24 0 .386.145.386.338h0zM10.94 9.857v2.852H4.658V9.857a1.02 1.02 0 011.015-1.015h4.253c.532.048 1.015.483 1.015 1.015h0zm4.109-6.621l-8.362.29h-.29V2.414l8.7.29v.532h-.048zm11.987 15.176v-1.837a2.372 2.372 0 00-2.369-2.368h-3.093a2.372 2.372 0 00-2.368 2.368v1.837c-.967.097-1.74.87-1.74 1.885v12.808c0 1.063.87 1.885 1.885 1.885h7.54c1.063 0 1.885-.87 1.885-1.885V20.297c.048-1.015-.725-1.837-1.74-1.885v0zm-5.462-2.272h3.093c.242 0 .435.193.435.435v1.788h-4.011v-1.788c.048-.241.241-.435.483-.435h0zM19.4 33.056l-.048-12.76h7.54l.048 12.712-7.54.048zm.144-23.296h.532v.532a.97.97 0 00.967.967.97.97 0 00.966-.967V9.76h.532a.97.97 0 00.967-.967.97.97 0 00-.967-.967h-.532v-.531a.97.97 0 00-.966-.967.97.97 0 00-.967.967v.531h-.532a.97.97 0 00-.967.967c0 .532.387.967.967.967zM29.79 2.994h-.531v-.532a.97.97 0 00-.967-.967.97.97 0 00-.967.967v.532h-.532a.97.97 0 00-.967.967.97.97 0 00.967.967h.532v.531a.97.97 0 00.967.967.97.97 0 00.967-.967v-.531h.532a.97.97 0 00.966-.967.97.97 0 00-.966-.967z" fill="#0D8CC5" stroke="#0D8CC5" stroke-width=".5"/></symbol><symbol id="f2" viewBox="0 0 28 33"><path d="M21.7 20.231l-3.74.2-.867-4.607 4.073-.467a2.178 2.178 0 001.936-2.404 2.178 2.178 0 00-2.404-1.936l-4.34.534-.2-1.202c-.267-1.469-1.67-2.47-3.139-2.203-1.468.267-2.47 1.669-2.203 3.138l2.27 12.486a2.736 2.736 0 002.804 2.203l4.207-.267 1.87 4.607c.6 1.402 2.136 2.07 3.538 1.47 1.402-.602 2.07-2.137 1.469-3.54l-2.67-6.41c-.334-1-1.403-1.669-2.605-1.602zM15.49 3.272a3.272 3.272 0 11-6.543 0 3.272 3.272 0 016.543 0z" fill="#0D8CC5"/><path d="M1.335 11.217h2.738c1.335 0 .734 1.803.868 4.006a10.823 10.823 0 00-1.937 6.143c0 5.876 4.808 10.683 10.684 10.683 2.537 0 4.807-.868 6.61-2.337l-.935-2.337a8.201 8.201 0 01-5.675 2.27c-8.68 0-11.552-11.75-3.74-15.69l-.467-2.404c-.668.267-1.269.6-1.87 1.002v-.535c0-1.936-1.602-3.538-3.538-3.538H1.335C.601 8.48 0 9.08 0 9.815s.6 1.402 1.335 1.402z" fill="#0D8CC5"/></symbol><symbol id="f3" viewBox="0 0 26 36"><path d="M13 .5C8.873.5 5.5 3.873 5.5 8c.002.253.06.501.088.752C2.69 9.822.5 12.318.5 15.495c0 4.127 3.373 7.5 7.5 7.5h.005c.858-.002 1.686-.237 2.49-.527.413.147.83.28 1.255.376V34h-7.5v1.5h17.5V34h-7.5V22.84a10.52 10.52 0 001.245-.372c.81.29 1.644.527 2.505.528 4.127 0 7.5-3.373 7.5-7.5-.002-3.175-2.19-5.67-5.088-6.739.027-.25.087-.499.088-.751 0-4.127-3.372-7.5-7.5-7.5V.5zM13 3c2.776 0 5 2.224 5 5a5.006 5.006 0 01-.127 1.074 1.25 1.25 0 001.001 1.51A4.987 4.987 0 0123 15.5c0 2.776-2.224 5-5 5-.69 0-1.37-.147-2.002-.424v0a1.25 1.25 0 00-1.006 0A5.01 5.01 0 0113 20.5c-.69 0-1.37-.148-2.002-.425a1.25 1.25 0 00-1.006 0A4.981 4.981 0 013 15.5a4.988 4.988 0 014.126-4.922h0a1.25 1.25 0 001-1.508A5 5 0 018 8c0-2.776 2.224-5 5-5h0z" fill="#469AD9" stroke="#469AD9" stroke-width=".5"/></symbol><symbol id="f4" viewBox="0 0 30 37"><path d="M15 4.688c3.63 0 6.593 3.031 6.593 6.743v13.566h1.636V11.713c0-4.627-3.706-8.418-8.229-8.418-4.522 0-8.229 3.791-8.229 8.418v13.284h1.637V11.43c0-3.712 2.963-6.743 6.592-6.743zm4.234 13.164h-3.09v7.145h3.09v-7.145zm-5.378 0h-3.09v7.145h3.09v-7.145zm-3.09-2.34h3.09v-8.25c-1.812.525-3.09 2.232-3.09 4.169v4.08zm5.379 0h3.09V11.43c0-1.936-1.279-3.643-3.09-4.168v8.248zm9.443 9.485h3.082c.65 0 1.179.54 1.179 1.206v4.547c0 .666-.529 1.207-1.18 1.207h-4.946v3.802c0 .666-.528 1.206-1.179 1.206H7.456c-.65 0-1.179-.54-1.179-1.206v-3.802H1.331c-.651 0-1.18-.54-1.18-1.207v-4.547c0-.666.529-1.206 1.18-1.206h3.082V11.713C4.413 5.753 9.174.883 15 .883s10.587 4.87 10.587 10.83v13.284zM2.51 27.409v2.135h24.98v-2.135H2.51zm18.855 4.548H8.635v2.596h12.73v-2.596z" fill="#0D8CC5"/></symbol><symbol id="f5" viewBox="0 0 40 32"><path d="M36 1H4a3.003 3.003 0 00-3 3v12a3.006 3.006 0 003 3h32a3.002 3.002 0 003-3V4a3.006 3.006 0 00-3-3zM10.388 17l1.333-4H28.28l1.333 4H10.388zM37 16a1.002 1.002 0 01-1 1h-4.278l-1.772-5.316v0A1.002 1.002 0 0029 11H11c-.43 0-.812.276-.95.684L8.28 17H4a1.002 1.002 0 01-1-1V4a1.002 1.002 0 011-1h32c.552.001.999.448 1 1l-.001 12z" fill="#0D8CC5" stroke="#0D8CC5" stroke-width=".5"/><path d="M27 5h-4a1 1 0 100 2h4a1 1 0 000-2zm6 0h-2a1 1 0 000 2h2a1 1 0 000-2zM20.293 21.293l-.418.418v0a4.093 4.093 0 00-.77 4.736 2.1 2.1 0 01-.394 2.428l-.418.418v0a.998.998 0 00-.012 1.426.998.998 0 001.426-.012l.417-.418a4.095 4.095 0 00.77-4.736 2.1 2.1 0 01.395-2.428l.417-.418a1 1 0 00-1.413-1.414h0zm-8 0l-.419.418a4.097 4.097 0 00-.769 4.736 2.1 2.1 0 01-.394 2.428l-.419.418a1 1 0 101.415 1.414l.417-.418a4.098 4.098 0 00.77-4.736 2.1 2.1 0 01.395-2.428l.418-.418a1 1 0 00-1.414-1.414h0zm16 0l-.417.418v0a4.097 4.097 0 00-.77 4.736 2.1 2.1 0 01-.395 2.428l-.417.418v0a1 1 0 101.413 1.414l.418-.418h0a4.099 4.099 0 00.77-4.736 2.1 2.1 0 01.394-2.428l.418-.418h0a1 1 0 00-1.414-1.414h0z" fill="#0D8CC5" stroke="#0D8CC5" stroke-width=".5"/></symbol><symbol id="f6" viewBox="0 0 34 34"><mask id="path-1-inside-1_35_848" fill="#fff"><path d="M28.726 33.05c-.267-.187-.59-.328-.79-.57-.402-.49-.308-1.166.171-1.667.387-.404.785-.797 1.23-1.248h-.406c-6.712 0-13.424.003-20.136-.002-2.012-.001-3.557-.864-4.608-2.583-.428-.7-.64-1.475-.69-2.292-.012-.193-.011-.387-.011-.58V3.694c-.092.072-.158.114-.212.168-.323.316-.64.636-.965.952C1.48 5.622.44 5.39.04 4.31.033 4.29.014 4.277 0 4.26v-.516c.226-.318.424-.661.685-.947.411-.45.882-.847 1.295-1.295C2.68.746 3.463.148 4.518 0h.646c1.06.146 1.84.755 2.545 1.509.507.541 1.06 1.038 1.58 1.569.367.375.491.83.319 1.336-.158.464-.494.751-.972.85-.483.101-.89-.074-1.226-.417-.42-.428-.833-.863-1.248-1.296l-.077.046c-.006.08-.017.159-.017.238 0 6.808-.003 13.617 0 20.425.001 1.614 1.104 2.72 2.716 2.721 6.798.004 13.596.001 20.393.001h.275c-.077-.096-.12-.162-.174-.216-.38-.38-.77-.75-1.145-1.135-.562-.576-.585-1.349-.068-1.874.52-.528 1.3-.524 1.874.032.741.719 1.47 1.451 2.201 2.18.532.53.766 1.202.91 1.917v.646c-.149 1.059-.75 1.84-1.52 2.532-.47.423-.888.904-1.36 1.327-.28.252-.617.442-.928.66h-.516z"/></mask><path d="M28.726 33.05c-.267-.187-.59-.328-.79-.57-.402-.49-.308-1.166.171-1.667.387-.404.785-.797 1.23-1.248h-.406c-6.712 0-13.424.003-20.136-.002-2.012-.001-3.557-.864-4.608-2.583-.428-.7-.64-1.475-.69-2.292-.012-.193-.011-.387-.011-.58V3.694c-.092.072-.158.114-.212.168-.323.316-.64.636-.965.952C1.48 5.622.44 5.39.04 4.31.033 4.29.014 4.277 0 4.26v-.516c.226-.318.424-.661.685-.947.411-.45.882-.847 1.295-1.295C2.68.746 3.463.148 4.518 0h.646c1.06.146 1.84.755 2.545 1.509.507.541 1.06 1.038 1.58 1.569.367.375.491.83.319 1.336-.158.464-.494.751-.972.85-.483.101-.89-.074-1.226-.417-.42-.428-.833-.863-1.248-1.296l-.077.046c-.006.08-.017.159-.017.238 0 6.808-.003 13.617 0 20.425.001 1.614 1.104 2.72 2.716 2.721 6.798.004 13.596.001 20.393.001h.275c-.077-.096-.12-.162-.174-.216-.38-.38-.77-.75-1.145-1.135-.562-.576-.585-1.349-.068-1.874.52-.528 1.3-.524 1.874.032.741.719 1.47 1.451 2.201 2.18.532.53.766 1.202.91 1.917v.646c-.149 1.059-.75 1.84-1.52 2.532-.47.423-.888.904-1.36 1.327-.28.252-.617.442-.928.66h-.516z" fill="#0D8CC5"/><path d="M28.726 33.05l-.574.82.258.18h.316v-1zm-.79-.57l-.773.634.773-.634zm.171-1.667l-.722-.692.722.692zm1.23-1.248l.712.703 1.684-1.703h-2.395v1zm-20.542-.002v-1 1zM4.187 26.98l-.853.521.853-.521zm-.69-2.292l-.999.06v.002l.998-.062zm-.011-.58h-1 1zm0-20.414h1V1.64L2.869 2.906l.617.788zm-.212.168l.7.714.003-.003-.703-.711zm-.965.952l-.698-.717.698.717zM.04 4.31l.938-.348-.003-.007-.935.355zM0 4.26h-1v.365l.234.279L0 4.26zm0-.516l-.815-.58-.185.26v.32h1zm.685-.947l-.739-.674.739.674zM1.98 1.502L1.246.823l.734.68zM4.518 0v-1h-.07l-.07.01.14.99zm.646 0L5.3-.99 5.232-1h-.068v1zm2.545 1.509l.73-.684-.73.684zm1.58 1.569l-.715.7.714-.7zm.319 1.336l-.947-.322.947.322zm-.972.85l-.202-.979h-.001l.203.98zM7.41 4.847l-.714.7v.001l.714-.7zM6.162 3.551l.72-.693-.552-.574-.683.41.515.857zm-.077.046l-.515-.858-.445.267-.038.518.998.073zm-.017.238h1-1zm0 20.425h1-1zm2.716 2.721v-1 1zm20.668.001v1h2.078l-1.297-1.624-.781.624zm-.174-.216l.707-.707v-.001l-.707.708zm-1.145-1.135l.716-.698v-.001l-.716.699zm-.068-1.874l-.713-.702.713.702zm1.874.032l-.696.718.696-.718zm2.201 2.18l-.706.708.706-.708zm.91 1.917h1v-.1l-.02-.098-.98.198zm0 .646l.99.139.01-.07v-.07h-1zm-1.52 2.532l-.668-.743.669.743zm-1.36 1.327l-.667-.745h-.001l.669.745zm-.928.66v1h.314l.259-.181-.573-.82zm.057-.82a4.972 4.972 0 00-.26-.168 8.532 8.532 0 01-.195-.12c-.114-.073-.137-.1-.135-.098l-1.545 1.27c.201.245.44.408.603.513.221.142.263.156.385.241l1.147-1.638zm-.59-.386a.108.108 0 01-.022-.038.111.111 0 01-.002-.044.479.479 0 01.145-.259l-1.445-1.383c-.734.767-1.025 2.014-.222 2.993l1.546-1.269zm.12-.34c.38-.396.763-.775 1.22-1.237l-1.422-1.406c-.436.44-.848.848-1.242 1.259l1.444 1.384zm.509-2.94h-.406v2h.406v-2zm-.407 0c-6.713 0-13.424.003-20.136-.002l-.001 2c6.713.005 13.425.002 20.137.002v-2zm-20.136-.002c-1.665-.001-2.886-.684-3.755-2.105l-1.706 1.043c1.233 2.017 3.1 3.06 5.46 3.062l.001-2zM5.04 26.458c-.33-.54-.504-1.15-.546-1.831l-1.996.123c.059.953.31 1.89.836 2.751l1.706-1.043zm-.546-1.83c-.009-.156-.008-.315-.008-.52h-2c0 .18-.002.41.012.64l1.996-.12zm-.008-.52V4.132h-2v19.976h2zm0-19.976v-.438h-2v.439h2zM2.869 2.906l-.107.082a1.886 1.886 0 00-.19.162l1.405 1.423c-.02.02-.033.028-.007.009.014-.012.025-.019.051-.039l.081-.062L2.87 2.906zm-.295.241c-.346.34-.63.626-.963.95L3.007 5.53c.315-.307.667-.66.967-.954l-1.4-1.429zm-.963.95c-.231.226-.368.2-.38.197-.01-.003-.143-.034-.253-.332l-1.876.695c.29.783.878 1.407 1.695 1.59.815.18 1.612-.135 2.21-.717L1.611 4.098zm-.636-.142A1.058 1.058 0 00.752 3.6c-.015-.016-.037-.038-.028-.03a.686.686 0 01.042.047L-.766 4.904c.03.035.057.062.064.07.017.016.002.002-.005-.006a.882.882 0 01-.188-.304l1.87-.71zM1 4.26v-.516h-2v.516h2zm-.185.064c.303-.426.4-.624.609-.853L-.054 2.123c-.313.343-.612.832-.76 1.041l1.629 1.16zm.609-.853c.179-.196.376-.386.6-.6.215-.207.46-.44.691-.69L1.245.824c-.181.197-.38.386-.605.602-.218.209-.462.443-.694.697l1.478 1.348zm1.29-1.29C3.346 1.5 3.933 1.092 4.658.991L4.38-.99C2.994-.795 2.015-.008 1.246.823l1.469 1.358zM4.519 1h.645v-2h-.646v2zm.51-.01c.723.1 1.305.512 1.952 1.202L8.44.825C7.673.008 6.696-.798 5.3-.991L5.027.991zM6.98 2.192c.272.29.552.564.82.823.272.264.527.509.775.762l1.43-1.398c-.272-.278-.553-.547-.814-.8a21.8 21.8 0 01-.75-.754L6.98 2.192zm1.595 1.586c.08.082.1.137.106.16.005.018.012.063-.019.154l1.894.644c.303-.891.057-1.736-.552-2.358l-1.429 1.4zm.087.315a.279.279 0 01-.075.128.324.324 0 01-.152.064l.405 1.958c.812-.168 1.44-.696 1.716-1.508L8.66 4.093zm-.228.192a.208.208 0 01-.124-.003.534.534 0 01-.186-.136L6.697 5.548c.516.525 1.251.881 2.143.695l-.407-1.958zm-.31-.138c-.415-.423-.818-.849-1.24-1.289L5.44 4.244c.408.425.83.87 1.255 1.304l1.428-1.401zM5.648 2.694l-.035.02a10.89 10.89 0 00-.042.025L6.6 4.454l.034-.02.042-.025-1.029-1.715zm-.56.83c-.002.033-.003.038-.01.105-.003.05-.01.123-.01.206h2l.003-.032.005-.054.007-.08-1.995-.145zm-.02.311c0 6.808-.002 13.617.002 20.426l2-.001c-.004-6.808-.002-13.616-.001-20.425h-2zm.002 20.426c0 1.04.36 1.984 1.045 2.67.686.688 1.63 1.05 2.67 1.05v-2c-.57 0-.985-.192-1.254-.462-.27-.27-.461-.686-.461-1.26l-2 .002zm3.715 3.72c6.797.004 13.596.001 20.393.001v-2c-6.798 0-13.595.003-20.392-.001l-.001 2zm20.393.001h.275v-2h-.277v2zm1.056-1.624l-.083-.108a1.906 1.906 0 00-.165-.191l-1.414 1.414c-.021-.021-.03-.034-.008-.006a6.5 6.5 0 01.042.054l.066.085 1.562-1.248zm-.249-.3c-.406-.405-.763-.744-1.135-1.125l-1.433 1.396c.378.387.801.791 1.157 1.145l1.411-1.416zm-1.136-1.126c-.128-.131-.153-.238-.154-.291-.002-.047.01-.109.084-.183l-1.426-1.403c-.946.961-.829 2.359.065 3.274l1.431-1.397zm-.07-.474c.076-.077.141-.092.19-.091.051 0 .152.021.275.14l1.392-1.435c-.934-.906-2.345-.97-3.283-.017l1.425 1.403zm.465.05c.735.712 1.456 1.436 2.191 2.17l1.412-1.418c-.727-.724-1.463-1.464-2.211-2.189l-1.392 1.437zm2.192 2.17c.325.323.505.765.635 1.406l1.96-.396c-.16-.788-.446-1.693-1.185-2.428l-1.41 1.418zm.615 1.208v.646h2v-.647h-2zm.01.506c-.102.726-.51 1.31-1.198 1.929l1.338 1.486c.849-.764 1.644-1.743 1.84-3.136l-1.98-.279zm-1.199 1.929c-.26.235-.504.483-.723.705a14.43 14.43 0 01-.635.62l1.335 1.489c.263-.236.506-.483.726-.706.226-.23.427-.434.636-.622l-1.339-1.486zm-1.359 1.326c-.223.2-.41.288-.833.584l1.146 1.639c.199-.14.686-.432 1.024-.736l-1.337-1.487zm-.26.403h-.516v2h.516v-2z" fill="#0D8CC5" mask="url(#path-1-inside-1_35_848)"/><path d="M31.647 21.44h0a.801.801 0 00.832-.47 16.356 16.356 0 00.072-.161V3.475c-.134-.598-.303-1.115-.626-1.552h0C31.358 1.157 30.631.696 29.7.548A.803.803 0 0129.529.5H12.303l-.016.007a2.307 2.307 0 00-.152.068h0c-.318.161-.459.388-.46.716l19.972 20.148zm0 0a.8.8 0 01-.671-.71 2.77 2.77 0 01-.008-.282v-.088 0m.679 1.08l-.678-1.08m0 0v-8.112m0 8.112v-8.112M12.106 1.982h0c.147.064.352.094.584.094 0 0 0 0 0 0v.5c4.507.007 9.014.006 13.521.006h2.703l-16.808-.6zm0 0c-.29-.126-.434-.348-.432-.691l.432.69zm18.861 10.265V4.136v8.113zm-11.744 9.344h0c.317-.098.544-.382.545-.803 0 0 0 0 0 0l-.545.803zm0 0c-.365.114-.716-.026-.858-.274h0m.858.274l-.858-.274m0 0c-.1-.177-.163-.42-.166-.64h0m.166.64l-.166-.64m0 0c-.013-1.134-.012-2.265-.011-3.399 0-.703.001-1.407-.002-2.115m.013 5.514l-2.053-6.925m0 0h0c1.03-.452 2.037.342 2.04 1.411m-2.04-1.411c-.297.13-.532.33-.688.597a1.655 1.655 0 00-.207.844c.003 1.806.002 3.613 0 5.42v0m.895-6.861l-.895 6.86m2.935-5.449l-.5.002.5-.002s0 0 0 0zm-2.935 5.45v.026c0 .165 0 .266-.018.358h0m.018-.384l-.018.384m0 0a.785.785 0 01-.829.639h0m.829-.639l-.829.639m0 0a.775.775 0 01-.726-.748 27.093 27.093 0 01-.01-1.198l.002-.493v0m.734 2.439l-.734-2.44m0 0v-1.342c.001-.897.002-1.796-.002-2.693h0m.002 4.035l-.002-4.036m0 0c-.003-.811-.553-1.474-1.371-1.523l1.371 1.524zm-2.936 5.486v-2.294c0-1.054 0-2.108.003-3.16l-.003 5.454zm0 0c0 .164 0 .263-.018.35v.001m.018-.35l-.018.35m0 0a.786.786 0 01-.83.638l.83-.638zM9.15 17.353v1.037c-.002.827-.004 1.65.007 2.474l-.006-3.512zm0 0v-.546l-.001-1.098m0 1.644V15.71m0 0v-2.742 2.742zm3.147-2.072a1.434 1.434 0 00-1.127.418c-.289.294-.434.7-.435 1.137l1.562-1.555zm-2.413 7.998a.772.772 0 01-.727-.77l.727.77z" fill="#0D8CC5" stroke="#0D8CC5"/><path d="M25.228 13.546l.554-.713.137-.174c.078-.098.14-.175.2-.263h0l.213-.303c.215-.303.417-.588.598-.892h0c.254-.428.4-.849.379-1.28l-2.081 3.625zm0 0l.898.091m-.898-.091l.898.091m0 0c.102.01.206.018.294.024l.107.008c.113.009.193.02.262.036h0m-.663-.068l.664.068m0 0c.378.09.622.432.592.813l-.592-.813zm-4.88 1.205c.193.506.59.814 1.129.825 1.224.025 2.45.029 3.675-.002l.668-1.215c-.033.409-.346.707-.68.715h0c-1.216.03-2.434.027-3.653.002h0c-.316-.007-.544-.168-.67-.502l-.468.177zm0 0l.468-.177s0 0 0 0m-.467.177l.468-.177m0 0a.698.698 0 01-.029-.466c.043-.142.139-.3.307-.475l.028-.029a77.446 77.446 0 002.103-2.24h0c.309-.346.546-.751.751-1.1l.026-.044h0a.909.909 0 00.112-.465.847.847 0 00-.148-.484s0 0 0 0l-.403.295c-.07-.096-.27-.175-.382-.145-.128.034-.255.178-.323.307m-2.042 4.846l1.6-5.08.442.234m0 0l-.442-.233m.442.233a.675.675 0 00-.055.25l-.387-.483m0 0a1.068 1.068 0 00-.107.393h0l-.005.05a1.495 1.495 0 01-.01.08l-.001.008h0a.779.779 0 01-.873.546.798.798 0 01-.662-.746l1.658-.331zm1.056-2.164h0c-1.407-.18-2.775 1.079-2.714 2.495l2.714-2.495zm0 0c1.34.171 2.208 1.099 2.274 2.432L25.035 7.49z" fill="#0D8CC5" stroke="#0D8CC5"/></symbol><symbol id="f7" viewBox="0 0 34 34"><path d="M4.926 19.391l1.79 1.821 4.596 4.674c.21.213.612.324.899.247l2.606-.695c.287-.076.462.1.39.393l-.654 2.692c-.07.293.04.704.25.918l.241.247c.21.213.478.164.602-.11.023-.05.08-.171.174-.36a29.448 29.448 0 011.67-2.995c.697-1.11 1.46-2.18 2.281-3.202a48.582 48.582 0 013.044-3.454 1.32 1.32 0 01.945-.404c.354-.005.698.137.95.394.258.25.397.6.402.961 0 .36-.139.71-.386.967a46.918 46.918 0 00-2.877 3.263 33.532 33.532 0 00-2.105 2.95 29.297 29.297 0 00-1.52 2.727c-.396.82-.74 1.667-1.035 2.53-.15.448-.515.782-.967.89a1.332 1.332 0 01-1.25-.365l-2.87-2.92a.787.787 0 01-.123-.867l.915-1.714c.14-.265.042-.368-.22-.228l-1.711.906a.768.768 0 01-.856-.134L4.82 23.146l-3.586-3.65a1.385 1.385 0 01-.36-1.256 1.36 1.36 0 01.843-.99c.419-.158.832-.327 1.24-.513a23.816 23.816 0 002.27-1.158 34.087 34.087 0 004.177-2.852 54.698 54.698 0 003.635-3.181 1.33 1.33 0 01.96-.371 1.36 1.36 0 011.3 1.41c-.01.36-.161.704-.419.95a53.13 53.13 0 01-3.822 3.339 36.66 36.66 0 01-3.42 2.426c-.36.23-.725.448-1.095.655-.349.203-.703.4-1.057.585-.208.106-.36.182-.456.229-.267.13-.314.409-.104.622z" fill="#0D8CC5"/><path d="M18.988 11.546l-4.971-5.06a1.324 1.324 0 00-1.895 0 1.382 1.382 0 00-.393.967c0 .36.14.71.392.967l13.733 13.978a1.333 1.333 0 001.9 0 1.37 1.37 0 00.392-.967c0-.361-.14-.705-.392-.962l-4.971-5.06a1.107 1.107 0 010-1.546L32.849 3.617a1.653 1.653 0 000-2.317c-.3-.306-.709-.48-1.138-.48-.43 0-.837.174-1.138.48L20.506 11.546a1.06 1.06 0 01-1.518 0z" fill="#0D8CC5"/></symbol><symbol id="f8" viewBox="0 0 28 22"><path d="M26.855 5.435A18.431 18.431 0 0013.73 0 18.43 18.43 0 00.607 5.435c-.81.809-.81 2.08 0 2.89.405.405.925.607 1.445.607s1.041-.202 1.446-.607c2.717-2.746 6.36-4.25 10.233-4.25 3.874 0 7.516 1.504 10.233 4.25.81.81 2.081.81 2.89 0 .81-.81.81-2.11 0-2.89z" fill="#0D8CC5"/><path d="M6.042 10.898c-.81.81-.81 2.082 0 2.89.404.406.925.608 1.445.608s1.04-.202 1.445-.607c2.66-2.66 6.967-2.66 9.597-.029.781.81 2.082.81 2.891 0 .81-.81.81-2.081 0-2.89-4.25-4.221-11.129-4.221-15.378.028zm10.898 7.66a3.18 3.18 0 11-6.36 0 3.18 3.18 0 016.36 0z" fill="#0D8CC5"/></symbol><symbol id="f9" viewBox="0 0 35 29"><path d="M33.53 0H1.082C.484 0 0 .495 0 1.106V22.92c0 .293.114.575.317.782.202.207.478.324.765.324h13.823v2.361H11.41a1.652 1.652 0 00-1.185.5c-.315.32-.491.755-.491 1.21v.752h15.142v-.752a1.73 1.73 0 00-.487-1.207c-.312-.32-.736-.5-1.178-.502h-3.505v-2.362H33.53c.286 0 .562-.117.764-.324a1.12 1.12 0 00.317-.782V1.106a1.12 1.12 0 00-.317-.782A1.07 1.07 0 0033.531 0h-.001zm-2.163 20.707H3.245V3.317h28.122v17.39z" fill="#0D8CC5"/></symbol><symbol id="food-menu" viewBox="0 0 26 39"><path d="M20.704.664a1.18 1.18 0 00-.405.09L1.642 8.185a1.225 1.225 0 00-.56.454 1.256 1.256 0 00-.213.695v27.248c0 .329.128.644.357.876.228.232.537.363.86.363h21.9c.323 0 .633-.13.861-.363a1.25 1.25 0 00.356-.876V9.334a1.25 1.25 0 00-.356-.876 1.205 1.205 0 00-.86-.363H8.524L19.526 3.71v1.496c-.005.332.12.651.35.887.228.236.54.37.866.37.326 0 .638-.134.866-.37a1.25 1.25 0 00.35-.887V1.902a1.25 1.25 0 00-.369-.89 1.206 1.206 0 00-.885-.348zm-17.4 9.908H22.77v24.771H3.303V10.572zm2.825 1.626a1.169 1.169 0 00-.126.013 1.21 1.21 0 00-.776.414c-.2.231-.307.53-.302.837v4.954c0 .057.005.112.013.168.092.71.19 1.393.43 2.064.242.671.692 1.386 1.446 1.768.17.085.356.13.545.129v9.908a1.25 1.25 0 00.35.888 1.206 1.206 0 001.733 0 1.25 1.25 0 00.35-.888v-9.908c.189 0 .376-.044.545-.129.754-.383 1.204-1.097 1.445-1.768.241-.67.34-1.354.43-2.064a1.27 1.27 0 00.014-.168v-4.954a1.25 1.25 0 00-.35-.887 1.206 1.206 0 00-1.734 0 1.251 1.251 0 00-.35.887v2.89H7.359v-2.89a1.251 1.251 0 00-.352-.897 1.206 1.206 0 00-.878-.367zm11.356.026c-1.213-.004-2.182.803-2.763 1.78-.58.976-.878 2.196-.874 3.522.003.963.038 1.862.266 2.71.228.847.728 1.733 1.61 2.18a1.2 1.2 0 00.545.129v9.908c-.005.332.121.652.35.888a1.206 1.206 0 001.733 0c.229-.236.355-.556.35-.888v-9.908a1.2 1.2 0 00.545-.13c.88-.445 1.378-1.319 1.61-2.167.232-.848.276-1.756.278-2.722.004-1.328-.302-2.546-.887-3.522-.584-.976-1.55-1.784-2.763-1.78zm0 2.477c.136 0 .388.098.685.593.296.495.535 1.314.532 2.232-.003.871-.065 1.596-.19 2.052-.099.36-.187.418-.279.49h-1.495c-.09-.07-.17-.12-.267-.477-.122-.457-.187-1.19-.19-2.065-.003-.92.239-1.737.532-2.232.295-.495.537-.594.672-.593zM7.447 18.829h2.257c-.064.396-.125.75-.203.968-.08.223-.129.225-.178.27H7.828c-.05-.045-.098-.047-.178-.27-.078-.219-.139-.572-.203-.968z" fill="#0D8CC5"/></symbol><symbol id="insta-icon" viewBox="0 0 30 37"><g clip-path="url(#clip0_24_51)" fill="#fff"><path d="M25 0H5C3.674 0 2.402.52 1.464 1.445A4.9 4.9 0 000 4.933v19.734a4.9 4.9 0 001.464 3.488A5.035 5.035 0 005 29.6h20c1.326 0 2.598-.52 3.535-1.445A4.9 4.9 0 0030 24.667V4.933a4.9 4.9 0 00-1.465-3.488A5.034 5.034 0 0025 0zm2.5 24.667a2.45 2.45 0 01-.732 1.744 2.517 2.517 0 01-1.768.722H5a2.52 2.52 0 01-1.768-.722 2.45 2.45 0 01-.732-1.744V4.933c0-.654.263-1.281.732-1.744A2.517 2.517 0 015 2.467h20c.663 0 1.299.26 1.768.722a2.45 2.45 0 01.732 1.744v19.734z"/><path d="M15 7.4a7.572 7.572 0 00-4.167 1.247 7.423 7.423 0 00-2.762 3.321 7.309 7.309 0 00-.427 4.276 7.37 7.37 0 002.053 3.788 7.532 7.532 0 003.84 2.026 7.594 7.594 0 004.333-.421 7.48 7.48 0 003.366-2.726A7.33 7.33 0 0022.5 14.8a7.35 7.35 0 00-2.197-5.233A7.552 7.552 0 0015 7.4zm0 12.333c-.989 0-1.956-.29-2.778-.831a4.948 4.948 0 01-1.841-2.214 4.872 4.872 0 01-.285-2.85 4.913 4.913 0 011.368-2.526 5.02 5.02 0 012.56-1.35 5.063 5.063 0 012.89.28 4.986 4.986 0 012.243 1.817 4.88 4.88 0 01.843 2.74 4.9 4.9 0 01-1.465 3.49A5.034 5.034 0 0115 19.732zm8.125-11.1c1.035 0 1.875-.828 1.875-1.85 0-1.022-.84-1.85-1.875-1.85-1.035 0-1.875.828-1.875 1.85 0 1.022.84 1.85 1.875 1.85z"/></g></symbol><symbol id="m-toggle" viewBox="0 0 32 18"><path d="M31.731 17.186c.17-.17.267-.4.269-.64a.877.877 0 00-.269-.64L16.64.815a.899.899 0 00-1.28 0L.265 15.905a.905.905 0 101.28 1.28L16 2.736l14.45 14.45a.902.902 0 001.28 0h.001z" fill="#C3ECFE"/></symbol><symbol id="phone" viewBox="0 0 23 23"><path d="M22.122 16.577l-5.417-1.753a1.52 1.52 0 00-1.612.446l-1.166 1.337a.936.936 0 01-1.213.167 22.136 22.136 0 01-3.588-2.903 22.399 22.399 0 01-2.903-3.588.938.938 0 01.167-1.213l1.337-1.166c.46-.4.632-1.032.445-1.612L6.42.878a1.266 1.266 0 00-1.353-.87l-2.34.276c-.506.06-.97.324-1.275.723-1.925 2.539-1.52 5.609-.84 7.74.894 2.792 2.792 5.737 5.35 8.292 2.556 2.557 5.502 4.455 8.292 5.35 2.13.68 5.2 1.087 7.736-.84.4-.305.664-.77.724-1.275l.275-2.341c.073-.6-.292-1.17-.867-1.356z" fill="#fff"/></symbol><symbol id="play" viewBox="0 0 130 130"><path d="M65 0A64.997 64.997 0 000 65 65 65 0 1065 0zM48.75 92.081V37.916L97.5 65.789 48.75 92.08z" fill="#fff"/></symbol><symbol id="rooms1" viewBox="0 0 21 25"><path d="M16.44 15.326l-2.833.152-.658-3.49 3.086-.354A1.65 1.65 0 0017.5 9.813a1.65 1.65 0 00-1.82-1.467l-3.288.405-.152-.91c-.202-1.114-1.265-1.872-2.378-1.67-1.112.202-1.871 1.264-1.669 2.377l1.72 9.46a2.073 2.073 0 002.124 1.669l3.187-.203 1.416 3.49c.455 1.063 1.619 1.569 2.681 1.113 1.062-.455 1.568-1.618 1.113-2.68l-2.023-4.856c-.253-.76-1.062-1.265-1.973-1.215zM11.735 2.479a2.479 2.479 0 11-4.957 0 2.479 2.479 0 014.957 0z" fill="#469AD9"/><path d="M1.011 8.498h2.074c1.012 0 .557 1.366.658 3.035a8.2 8.2 0 00-1.467 4.653c0 4.452 3.642 8.094 8.093 8.094a7.845 7.845 0 005.008-1.77l-.708-1.771a6.213 6.213 0 01-4.3 1.72c-6.575 0-8.75-8.903-2.832-11.887L7.183 8.75a7.624 7.624 0 00-1.417.759v-.405a2.699 2.699 0 00-2.68-2.68H1.012C.455 6.424 0 6.878 0 7.434c0 .557.455 1.063 1.012 1.063z" fill="#469AD9"/></symbol><symbol id="rooms2" viewBox="0 0 23 20"><path d="M22.024.61H.904a.712.712 0 00-.704.72v14.2c0 .191.075.374.207.51.132.134.31.21.497.21h8.998v1.537H7.628a1.075 1.075 0 00-.772.325c-.204.208-.32.492-.32.788v.49h9.857v-.49c0-.295-.114-.577-.317-.786a1.076 1.076 0 00-.767-.327h-2.281V16.25h8.997a.697.697 0 00.498-.21.728.728 0 00.206-.51V1.33a.728.728 0 00-.206-.51.696.696 0 00-.498-.21zm-1.407 13.48H2.313V2.77h18.304v11.32z" fill="#469AD9"/></symbol><symbol id="rooms3" viewBox="0 0 20 15"><path d="M18.822 3.634A12.324 12.324 0 0010.046 0 12.324 12.324 0 001.27 3.634a1.354 1.354 0 000 1.933c.27.27.619.406.967.406s.696-.135.966-.406a9.557 9.557 0 016.843-2.842 9.558 9.558 0 016.843 2.842 1.353 1.353 0 001.933 0 1.353 1.353 0 000-1.933z" fill="#469AD9"/><path d="M4.904 7.287a1.354 1.354 0 000 1.933c.27.27.619.406.967.406s.696-.135.966-.406c1.779-1.778 4.659-1.778 6.418-.019a1.354 1.354 0 001.933 0 1.354 1.354 0 000-1.933 7.286 7.286 0 00-10.284.02zm7.287 5.123a2.126 2.126 0 11-4.252 0 2.126 2.126 0 014.252 0z" fill="#469AD9"/></symbol></svg>