<?xml version="1.0" encoding="utf-8"?>
<!-- Generator: Adobe Illustrator 22.1.0, SVG Export Plug-In . SVG Version: 6.00 Build 0)  -->
<svg version="1.1" id="Слой_1" xmlns="http://www.w3.org/2000/svg" xmlns:xlink="http://www.w3.org/1999/xlink" x="0px" y="0px"
	 viewBox="0 0 300 300" style="enable-background:new 0 0 300 300;" xml:space="preserve">
<g>
	<path d="M134.3,23.6c-4.8-1.3-8.2-2.3-12.4-3.3c3.6-3.1,4.6-4.8,7.3-7c6.2,0.8,12.6,1.6,19.4,2.3c-0.4,7.2-0.4,13.4-1,20
		c-2.9,2.2-4.3,2.9-8.6,6.2c0-4.7,0-8.2,0-12.5c-22.6,16.5-46.6,34.1-70,51.1c4.8,1.2,8.2,2.1,12,3.1c-3.1,3.4-4.6,4.8-7,7.3
		c-6.8-0.9-13.5-1.8-20.2-2.8c0.6-11.9,0.6-12.6,1.1-19.1c3.8-2.7,3.8-2.7,9.5-6.5c0,3.8,0,7.4,0,12.2
		C88.1,57.2,110.8,40.7,134.3,23.6z"/>
	<path d="M232.4,144.3c-1.5-9.7-7.3-15.3-17.3-16.4c-0.8-6.3-3.4-11.5-9-15.1c26-13.2,35-35.3,23.7-56.6
		c-10.2-19.3-33.8-26.4-53.2-16c-19.1,10.2-28.9,36.4-10.5,61.6c-5.3,11.8-10.5,23.7-16.5,37.1c-7.7-28.4-21.7-41.2-41.9-40
		c-18.9,1.1-34.4,14.6-37.1,32.5c-1.4,9.3,0,18.3,4.8,26.4c7,11.8,18,17.5,31,19.7c0.1,10.2-0.4,19.9,4.2,28.4
		c6.4,11.8,5.3,22.8-1.1,33.9c-1.1,1.8-1.8,3.8-2.6,5.7c-4.1,8.9-1.4,13.2,8.6,13.4c21,0.6,39.5,7.2,53.3,24c1.9,2.3,4.2,3.8,7,3.9
		c6.1-0.9,7.3-5.8,9.3-10c5.5-11.2,7.9-24.3,16.9-33.2c17.8-17.6,31.7-37.3,37.1-62.3c0.6-2.6,1.7-4.9,2.6-7.4
		C246.3,159.5,244.4,153.3,232.4,144.3z M170.6,54.8c8.3-10.7,23.4-14.8,36-9.9c12.8,5,21.5,18.4,20.3,31.4
		c-1.4,14.5-10.8,25.6-25.2,28.1c3.6-8,6.8-15.1,9.7-22.4c4-10,0.6-19.1-8.2-23c-9-4-17.9-0.3-22.5,9.5c-3.6,7.7-6.9,15.5-10.5,23.6
		C161.3,80.3,161.6,66.3,170.6,54.8z M78.6,145.3c-3.2-14.3,3.2-28.4,15.9-35.2c12.9-6.8,28.1-4.3,38,6.4
		c9.6,10.4,11.2,24.2,3.9,36.2c-5.3-7.8-9.3-16.5-17.5-21.7c-8.5-5.4-17.3-3.6-22.3,4.8c-3.6,6-2.7,11.8,0.6,17.8
		c2.7,4.8,7.2,8.8,8,14.9C92.3,167.6,81.4,157.9,78.6,145.3z M175.6,278.8c-16.6-19.5-37.3-27.7-62.7-27.2c2.6-6.4,5-12,7.7-18.6
		c26.2-3.7,45.1,9.9,63.3,26.9C181.3,266.2,178.6,272.2,175.6,278.8z M235.7,166.4c-6.9,26-15.8,51-37,69.2
		c-5.1,4.3-8.5,9.8-11.1,16.9c-18.2-16.3-37.4-29.3-62.9-27.5c-1.3-7.1-3.4-13.5-6.2-19.7c-3.3-7.5-4.3-15.5-3.9-23.7
		c0.5-10.2-1.8-19.7-8.1-28c-1.1-1.4-2-3.1-2.9-4.6c-2.6-4.5-2.1-8.6,2-11.9c3.8-3.1,7.4-1.4,10.6,1.4c6.5,5.5,10.8,12.7,14.1,20.5
		c2.4,5.8,4.6,11.7,7.2,18.6c9.9-18.3,19.6-35.7,27.6-54c7.3-16.8,14.6-33.5,22-50.2c3.3-7.3,7.8-9.7,13.2-7.3
		c5.3,2.4,6.6,7.6,3.5,14.8c-9.7,22.2-19.5,44.4-29.3,66.7c3,2.8,4.3,1.4,5.5-1.5c2.8-6.8,5.8-13.4,8.7-20.1
		c2.5-5.9,6.8-9.1,12.9-6.4c5.7,2.5,6.6,7.4,4.3,13.2c-2.6,6.5-4.9,13.2-7.3,19.8c-0.9,2.3-2.8,4.8,2,7c1.9-4.9,3.8-9.5,5.5-14
		c2.2-5.5,4.6-11.2,12.2-9.1c5.7,1.5,7.1,7.3,4.3,15.1c-2.1,5.9-4.2,11.8-6.5,17.6c-0.9,2.3-1.4,4,2.8,4.7
		c2.5-6.7,5.1-13.6,7.6-20.3C234.7,153.6,238,157.9,235.7,166.4z"/>
</g>
</svg>
