<svg width="27" height="34" viewBox="0 0 27 34" fill="none" xmlns="http://www.w3.org/2000/svg">
<path d="M26.097 3.5354C26.2264 3.40603 26.3124 3.19059 26.3124 3.0182L26.3127 0.905816C26.3127 0.517706 25.9679 0.172913 25.5798 0.172913H16.5692C16.1811 0.172913 15.8363 0.51772 15.8363 0.905816V3.0182C15.8363 3.1906 15.9226 3.36301 16.0087 3.49238L17.5606 5.21697V16.857C16.6553 17.4605 15.2324 18.1934 14.3271 17.7622C14.2408 17.7192 14.1978 17.6759 14.1117 17.6329C12.258 16.081 13.2927 13.063 14.2841 10.175C15.1031 7.84683 15.7929 5.82078 14.974 4.4413C14.8876 4.26889 14.7585 4.13952 14.6722 4.01015C14.3274 3.62204 13.8099 3.36358 13.1634 3.23422C11.137 2.80308 9.6282 3.66537 8.37808 5.21725C8.29174 5.34662 8.16264 5.47599 8.0763 5.60536C7.98997 5.73473 7.86087 5.8641 7.77453 5.99347C7.77453 6.0365 7.7315 6.0365 7.7315 6.07981C7.38669 6.59701 7.08492 7.11452 6.82621 7.67497C6.13633 6.94207 4.79988 6.25219 3.67911 6.25219C3.24797 6.25219 2.86016 6.33853 2.51505 6.51093C1.73911 6.94207 1.22162 7.80436 1.00621 8.96815C0.876839 9.87343 0.963177 10.8218 1.22165 11.3823C1.30798 11.5978 2.38572 13.193 3.89455 15.4347C3.80821 15.6935 3.72215 15.9519 3.63581 16.1676C3.46341 16.5988 3.16163 17.0299 2.64419 16.9436C2.17002 16.8572 1.65258 16.34 1.65258 15.6934C1.65258 15.3053 1.30777 14.9605 0.919672 14.9605C0.531561 14.9605 0.186768 15.3053 0.186768 15.6934C0.186768 16.9869 1.17838 18.1506 2.38548 18.3663C3.24774 18.5387 4.32548 18.1939 4.92903 16.9005C8.93866 22.8926 14.9741 31.86 15.9656 33.3254C16.0949 33.5408 16.3537 33.6702 16.5691 33.6702C16.9572 33.6702 17.302 33.3254 17.302 32.9373C17.302 32.8079 17.259 32.6355 17.1726 32.5492C16.1379 29.9626 9.58515 13.7956 7.73106 9.31215C8.37764 7.88937 8.98118 6.72558 9.71409 5.94937C9.75712 5.86303 9.84346 5.82 9.88649 5.77697C9.97283 5.69063 10.0159 5.60456 10.1019 5.56153C10.4037 5.25976 10.7485 5.04433 11.0935 4.91496C11.0935 4.91496 11.1366 4.91496 11.1366 4.87192C11.309 4.78559 11.4384 4.74255 11.6108 4.69952H11.6971C11.8695 4.65649 11.9989 4.65649 12.1713 4.65649H12.3006C12.473 4.65649 12.6888 4.65649 12.9042 4.69952C13.5508 4.82889 13.7231 5.13066 13.7664 5.21672C14.2406 6.03568 13.594 7.93265 12.9475 9.74329C11.9128 12.8043 10.6193 16.598 13.2062 18.7969C13.7667 19.271 14.3703 19.4434 15.0169 19.4434C15.9222 19.4434 16.8705 19.0553 17.6034 18.6675V20.1763L16.0946 21.5991C15.9222 21.6855 15.8359 21.8579 15.8359 22.0736V24.1859C15.8359 24.5741 16.1807 24.9188 16.5688 24.9188H25.5787C25.9668 24.9188 26.3116 24.574 26.3116 24.1859L26.3119 22.0736C26.3119 21.9012 26.2255 21.7288 26.1395 21.5994L24.5876 19.8748L24.5873 4.95828L26.097 3.5354ZM13.25 26.6429C8.20597 19.1413 2.817 11.1229 2.55856 10.606C2.47223 10.4766 2.38616 9.83008 2.47222 9.1402C2.6016 8.45032 2.86034 7.9331 3.20513 7.76072C3.3345 7.67438 3.5069 7.67438 3.67931 7.67438C4.62769 7.67438 5.74866 8.49334 5.92105 8.83845C5.96408 8.88148 6.00738 9.01085 6.09345 9.22656C5.87801 9.70074 5.70534 10.1749 5.53294 10.6493L5.18814 9.95947C5.01573 9.61466 4.54156 9.44226 4.19652 9.65769C3.85171 9.8301 3.72234 10.3043 3.89474 10.6493L5.05881 12.848C5.18818 13.1068 5.44692 13.2361 5.70539 13.2361C5.83476 13.2361 5.92083 13.1931 6.0502 13.1498C6.30894 13.0204 6.43831 12.7186 6.43831 12.4599C6.43831 12.4599 6.43831 12.4169 6.48134 12.4169C6.65374 11.9857 6.78311 11.5546 6.95552 11.1668C8.33555 14.486 10.8361 20.7372 13.2503 26.6431L13.25 26.6429ZM24.8471 22.3317V23.4527H17.3026V22.375L18.7684 20.9955H23.64L24.8471 22.3317ZM23.0795 9.13971V11.1227L19.0701 8.27745V6.29443L23.0795 9.13971ZM20.5359 5.56145H23.0795V7.3721L20.5359 5.56145ZM23.0795 12.8905V14.8735L19.0271 12.0713V10.0449L23.0795 12.8905ZM23.0795 16.6411V18.6244L19.0271 15.8655V13.8822L23.0795 16.6411ZM21.8291 19.5297H19.0701V17.6327L21.8291 19.5297ZM23.3812 4.09565H18.5096L17.3025 2.75919V1.63843H24.847V2.71617L23.3812 4.09565Z" fill="#0D8CC5" stroke="#0D8CC5" stroke-width="0.5"/>
</svg>
