<svg width="32" height="32" viewBox="0 0 32 32" fill="none" xmlns="http://www.w3.org/2000/svg">
<path d="M20.5467 0.396606H4.10857C2.9544 0.396606 2.00996 1.34098 2.00996 2.49521V5.29325L1.31053 5.293C0.715995 5.293 0.26123 5.74775 0.26123 6.3423C0.26123 6.93686 0.715976 7.39161 1.31053 7.39161H2.00996V10.1896H1.31053C0.715995 10.1896 0.26123 10.6444 0.26123 11.2389C0.26123 11.8335 0.715976 12.2882 1.31053 12.2882H2.00996V15.0863L1.31053 15.086C0.715995 15.086 0.26123 15.5408 0.26123 16.1353C0.26123 16.7299 0.715976 17.1846 1.31053 17.1846H2.00996V19.9827H1.31053C0.715995 19.9827 0.26123 20.4374 0.26123 21.032C0.26123 21.6265 0.715976 22.0813 1.31053 22.0813H2.00996V24.8793L1.31053 24.8791C0.715995 24.8791 0.26123 25.3338 0.26123 25.9284C0.26123 26.5229 0.715976 26.9777 1.31053 26.9777H2.00996V29.7757C2.00996 30.9299 2.95434 31.8743 4.10857 31.8743H20.5467C21.7008 31.8743 22.6453 30.9299 22.6453 29.7757L22.645 2.49548C22.645 1.34131 21.7009 0.396874 20.5467 0.396874L20.5467 0.396606ZM17.0492 29.7753H4.10857V26.9773H4.808C5.40254 26.9773 5.8573 26.5225 5.8573 25.928C5.8573 25.3334 5.40255 24.8787 4.808 24.8787H4.10857V22.0806H4.808C5.40254 22.0806 5.8573 21.6259 5.8573 21.0313C5.8573 20.4368 5.40255 19.982 4.808 19.982H4.10857V17.184H4.808C5.40254 17.184 5.8573 16.7293 5.8573 16.1347C5.8573 15.5402 5.40255 15.0854 4.808 15.0854H4.10857V12.2874H4.808C5.40254 12.2874 5.8573 11.8326 5.8573 11.2381C5.8573 10.6435 5.40255 10.1888 4.808 10.1888H4.10857V7.39073H4.808C5.40254 7.39073 5.8573 6.93598 5.8573 6.34142C5.8573 5.74687 5.40255 5.29212 4.808 5.29212H4.10857V2.49409H17.0492V29.7753ZM20.5467 29.7753H18.4481V2.49509H20.5467V29.7753ZM30.6893 0.396606H27.1918C26.5973 0.396606 26.1425 0.851352 26.1425 1.44591V2.84477H24.3938C23.7993 2.84477 23.3445 3.29952 23.3445 3.89407V8.09097C23.3445 8.68551 23.7992 9.14027 24.3938 9.14027C24.9883 9.14027 25.4431 8.68552 25.4431 8.09097V4.94337H26.1425V27.8518C26.1425 28.0267 26.1774 28.2365 26.2823 28.3763L28.0311 31.3493C28.2411 31.664 28.5558 31.8738 28.9405 31.8738C29.3253 31.8738 29.64 31.664 29.8498 31.3493L31.5985 28.3763C31.7034 28.2014 31.7383 28.0264 31.7383 27.8518L31.7386 1.44591C31.7386 0.851371 31.2838 0.396606 30.6893 0.396606H30.6893ZM29.64 27.5719L28.9406 28.761L28.2411 27.5719V2.49509H29.64V27.5719Z" fill="#0D8CC5"/>
</svg>
