<svg width="21" height="27" viewBox="0 0 21 27" fill="none" xmlns="http://www.w3.org/2000/svg">
<path fill-rule="evenodd" clip-rule="evenodd" d="M4.51049 1.89009V1.08516C4.51156 1.06028 4.51156 1.03539 4.51405 1.0105C4.51867 0.960373 4.52862 0.910948 4.54285 0.862955C4.60933 0.645727 4.77252 0.465824 4.98228 0.378722C5.05161 0.350279 5.1252 0.331793 5.19986 0.324326C5.22439 0.321837 5.24999 0.321837 5.27488 0.32077H15.1629C15.1878 0.321837 15.2127 0.323259 15.2379 0.324326C15.2628 0.327881 15.2877 0.330369 15.3122 0.335346C15.3613 0.345301 15.4089 0.359522 15.4555 0.378721C15.6656 0.465826 15.8284 0.645727 15.8949 0.862955C15.9091 0.910952 15.9187 0.960369 15.9237 1.0105C15.9266 1.03539 15.9266 1.06028 15.9273 1.08516V1.7941C16.0524 1.7941 16.1776 1.7941 16.3027 1.79516C16.7013 1.80227 17.0956 1.87125 17.4717 2.00564C17.9851 2.18909 18.4541 2.49094 18.8349 2.88096C19.2046 3.26067 19.4891 3.72144 19.6615 4.22236C19.787 4.58571 19.8506 4.96613 19.8577 5.3505C19.8638 6.36096 19.8638 7.3717 19.8577 8.38243C19.8545 8.54242 19.8453 8.70205 19.8272 8.86062C19.7852 9.22789 19.6995 9.59053 19.5726 9.93753C19.3255 10.6123 18.9213 11.227 18.4011 11.723C17.9215 12.1802 17.3459 12.5343 16.7205 12.7548C16.4631 12.8454 16.1972 12.9137 15.9273 12.9581V21.2694C16.093 21.275 16.2587 21.2811 16.4244 21.2871C16.4443 21.29 16.4642 21.2914 16.4841 21.2942C16.5431 21.3042 16.6014 21.3205 16.6569 21.3433C16.8617 21.4286 17.0227 21.6021 17.0917 21.8133C17.1098 21.8702 17.1215 21.9299 17.1269 21.9897C17.1283 22.0096 17.1283 22.0298 17.1287 22.0498V24.9246C17.1269 24.9776 17.1279 24.9911 17.1198 25.0437C17.1098 25.1034 17.0935 25.1614 17.0707 25.2168C16.9857 25.422 16.8119 25.583 16.6007 25.6513C16.5438 25.6701 16.4841 25.6819 16.4243 25.6865C16.4044 25.6879 16.3842 25.6879 16.3643 25.689H4.07343C4.05316 25.6879 4.03325 25.6879 4.01334 25.6865C3.95326 25.6819 3.89424 25.6701 3.837 25.6513C3.62582 25.583 3.4516 25.422 3.36698 25.2168C3.34423 25.1614 3.32788 25.1034 3.31828 25.0437C3.3101 24.9911 3.31081 24.9776 3.30903 24.9246V22.0498C3.30939 22.0298 3.30939 22.0096 3.31081 21.9897C3.31614 21.9299 3.32788 21.8702 3.34601 21.8133C3.41498 21.6021 3.57568 21.4286 3.78082 21.3433C3.83593 21.3205 3.89459 21.3042 3.9536 21.2942C4.00658 21.2864 4.02009 21.2871 4.07342 21.2854C4.21883 21.2854 4.3646 21.2846 4.51037 21.2846V8.48503C3.18035 6.7266 1.93415 4.90628 0.643634 3.11863C0.581771 3.02726 0.535908 2.92949 0.514219 2.82034C0.500708 2.7535 0.496442 2.68488 0.501064 2.61697C0.51884 2.36916 0.659987 2.14056 0.873666 2.01364C0.944061 1.97168 1.02157 1.94182 1.10156 1.92404C1.14174 1.91515 1.18191 1.91124 1.2228 1.90769C2.31818 1.87853 3.41465 1.87284 4.51039 1.89027L4.51049 1.89009ZM15.5999 22.8138H4.83815V24.1595H15.5999V22.8138ZM14.3986 2.49444V1.84915H6.03966V2.50404C6.04819 2.54528 6.05388 2.58759 6.05743 2.63025C6.10614 4.50355 6.0585 6.3783 6.0585 8.25233C6.05672 8.3085 6.05068 8.36326 6.03966 8.41729V21.267H6.70769C9.2718 21.2385 11.8363 21.1873 14.3986 21.2307V12.3214C14.3964 12.2993 14.3954 12.277 14.395 12.2549V2.55804C14.3954 2.53671 14.3964 2.51538 14.3986 2.49405L14.3986 2.49444ZM15.9274 11.3969C15.974 11.3852 16.0191 11.3731 16.065 11.3592C16.3359 11.2771 16.5947 11.1619 16.8347 11.0122C17.453 10.6265 17.929 10.0284 18.1626 9.33799C18.2689 9.02334 18.3219 8.69448 18.3287 8.36239C18.3347 7.34737 18.3589 6.33163 18.3272 5.31689C18.318 5.09682 18.2757 4.87888 18.1989 4.67196C18.1015 4.40993 17.9511 4.16889 17.7584 3.96658C17.5362 3.73336 17.2592 3.55274 16.9559 3.44431C16.7401 3.3668 16.5133 3.3277 16.2836 3.32343C16.1649 3.32236 16.0461 3.32307 15.9274 3.32307L15.9274 11.3969ZM2.75916 3.43482L4.51049 5.86095V3.43482H2.75916Z" fill="#0D8CC5" stroke="#0D8CC5" stroke-width="0.7"/>
</svg>
