<svg width="32" height="36" viewBox="0 0 32 36" fill="none" xmlns="http://www.w3.org/2000/svg">
<path d="M15.5329 0.818847L5.91467 0.528839C5.52787 0.528839 5.14144 0.673838 4.85145 0.963846C4.56144 1.25385 4.41645 1.64065 4.41645 2.02706V4.05712C4.41645 4.44392 4.56144 4.83035 4.85145 5.12034C5.04467 5.31355 5.33467 5.45855 5.62468 5.50713V7.00535C4.02962 7.00535 2.7246 8.31037 2.7246 9.95366V12.8051H2.5796C1.32281 12.8051 0.308105 13.8201 0.308105 15.0766V32.718C0.308105 33.9748 1.32309 34.9895 2.5796 34.9895H13.019C14.2758 34.9895 15.2905 33.9745 15.2905 32.718V15.0291C15.2905 13.7724 14.2755 12.7577 13.019 12.7577H12.874V9.90619C12.874 8.31113 11.569 7.00611 9.97393 6.95788V5.36283L15.5323 5.16924C16.3541 5.12103 16.9823 4.49243 16.9823 3.67102V2.26916C16.9823 1.49594 16.354 0.81917 15.5323 0.81917L15.5329 0.818847ZM8.04128 6.95717H7.55807V5.45895H8.04128V6.95717ZM13.3578 29.673H7.79986V18.5567H13.3582L13.3578 29.673ZM13.3578 15.0288V16.6239L6.83301 16.6235C6.3012 16.6235 5.86615 17.0585 5.86615 17.5904V30.6396C5.86615 31.1714 6.30116 31.6065 6.83301 31.6065H13.3578V32.7179C13.3578 32.9111 13.2128 33.0561 13.0196 33.0561L2.53178 33.0565C2.33856 33.0565 2.19356 32.9115 2.19356 32.7183V15.0284C2.19356 14.8352 2.33856 14.6902 2.53178 14.6902H12.9712C13.2126 14.6899 13.3576 14.8349 13.3576 15.0284L13.3578 15.0288ZM10.9414 9.85725V12.7087H4.65797V9.85725C4.65797 9.32544 5.09298 8.84227 5.67295 8.84227H9.9259C10.4581 8.89048 10.9413 9.32548 10.9413 9.85725H10.9414ZM15.0496 3.23569L6.68803 3.5257H6.39803V2.41388L15.0979 2.70388V3.23569H15.0496Z" fill="#0D8CC5" stroke="#0D8CC5" stroke-width="0.5"/>
<path d="M27.0356 18.4118V16.5754C27.0356 15.2703 25.9724 14.2071 24.6674 14.2071H21.5741C20.2691 14.2071 19.2058 15.2703 19.2058 16.5754V18.4118C18.239 18.5086 17.4658 19.2819 17.4658 20.2968V33.1049C17.4658 34.1682 18.3358 34.9899 19.3508 34.9899H26.8906C27.9538 34.9899 28.7756 34.1199 28.7756 33.1049V20.2968C28.8238 19.2819 28.0506 18.4604 27.0356 18.4121V18.4118ZM21.5741 16.14H24.6674C24.9092 16.14 25.1024 16.3332 25.1024 16.575V18.3632H21.0909V16.575C21.1391 16.3335 21.3323 16.14 21.5741 16.14H21.5741ZM19.399 33.0561L19.3508 20.2964H26.8906L26.9389 33.0076L19.399 33.0561Z" fill="#0D8CC5" stroke="#0D8CC5" stroke-width="0.5"/>
<path d="M19.544 9.76012H20.0758V10.2919C20.0758 10.8237 20.5108 11.2588 21.0427 11.2588C21.5745 11.2588 22.0095 10.8238 22.0095 10.2919V9.76012H22.5413C23.0731 9.76012 23.5082 9.32511 23.5082 8.79327C23.5082 8.26146 23.0732 7.82642 22.5413 7.82642H22.0095V7.29461C22.0095 6.7628 21.5745 6.32776 21.0427 6.32776C20.5109 6.32776 20.0758 6.76276 20.0758 7.29461V7.82642H19.544C19.0122 7.82642 18.5771 8.26142 18.5771 8.79327C18.5775 9.32507 18.9639 9.76012 19.544 9.76012Z" fill="#0D8CC5" stroke="#0D8CC5" stroke-width="0.5"/>
<path d="M29.7906 2.9939H29.2588V2.46209C29.2588 1.93028 28.8238 1.49524 28.2919 1.49524C27.7601 1.49524 27.3251 1.93025 27.3251 2.46209V2.9939H26.7933C26.2615 2.9939 25.8264 3.4289 25.8264 3.96075C25.8264 4.49255 26.2614 4.9276 26.7933 4.9276H27.3251V5.4594C27.3251 5.99121 27.7601 6.42626 28.2919 6.42626C28.8237 6.42626 29.2588 5.99125 29.2588 5.4594V4.9276H29.7906C30.3224 4.9276 30.7574 4.49259 30.7574 3.96075C30.7571 3.42894 30.3221 2.9939 29.7906 2.9939Z" fill="#0D8CC5" stroke="#0D8CC5" stroke-width="0.5"/>
</svg>
