<svg width="30" height="37" viewBox="0 0 30 37" fill="none" xmlns="http://www.w3.org/2000/svg">
<path d="M15.0007 4.68755C18.6292 4.68755 21.5931 7.71947 21.5931 11.4313V24.9968H23.2292V11.7131C23.2292 7.08624 19.5232 3.29504 15 3.29504C10.4777 3.29504 6.77144 7.08631 6.77144 11.7131V24.9968H8.4075V11.4313C8.4075 7.71893 11.3714 4.68755 15.0002 4.68755H15.0007ZM19.2344 17.8523H16.1448V24.997H19.2344V17.8523ZM13.8565 17.8523H10.7664V24.997H13.8565V17.8523ZM10.7664 15.5115H13.8565V7.26244C12.0442 7.7873 10.7664 9.49439 10.7664 11.4307V15.5115ZM16.1447 15.5115H19.2344V11.4309C19.2344 9.49487 17.9565 7.78753 16.1447 7.26264V15.5115ZM25.5877 24.9968H28.6698C29.3204 24.9968 29.8487 25.5372 29.8487 26.2034V30.7502C29.8487 31.4163 29.3204 31.9568 28.6698 31.9568H23.7232V35.7594C23.7232 36.425 23.1949 36.9655 22.5442 36.9655H7.45614C6.80549 36.9655 6.27716 36.425 6.27716 35.7594V31.9568H1.33059C0.679938 31.9568 0.151611 31.4164 0.151611 30.7502V26.2034C0.151611 25.5373 0.679925 24.9968 1.33059 24.9968H4.41322V11.7131C4.41322 5.75348 9.174 0.882828 14.9998 0.882828C20.8258 0.882828 25.5871 5.75388 25.5871 11.7131L25.5877 24.9968ZM2.51023 27.4094V29.5439H27.4905V27.4094H2.51023ZM21.365 31.9567H8.63571V34.5528H21.365V31.9567Z" fill="#0D8CC5"/>
</svg>
