<svg width="40" height="32" viewBox="0 0 40 32" fill="none" xmlns="http://www.w3.org/2000/svg">
<path d="M36.0001 1H3.99995C3.20485 1.00117 2.44194 1.31699 1.88006 1.87947C1.31757 2.44195 1.00117 3.20482 1 3.99996V15.9996C1.00117 16.7947 1.31757 17.5576 1.88006 18.1201C2.44196 18.6826 3.20482 18.9984 3.99995 18.9996H36.0001C36.7952 18.9984 37.5581 18.6826 38.1199 18.1201C38.6824 17.5576 38.9988 16.7948 39 15.9996V3.99996C38.9988 3.20486 38.6824 2.44195 38.1199 1.87947C37.558 1.31699 36.7952 1.00117 36.0001 1ZM10.3883 17.0001L11.7212 13H28.2793L29.6122 17.0001H10.3883ZM36.999 15.9999C36.9979 16.5518 36.5508 16.9989 35.9994 17.0001H31.7211L29.9488 11.6841V11.6835C29.8117 11.2757 29.4296 11.0003 28.9996 11.0003H11.0001C10.57 11.0003 10.188 11.2757 10.0509 11.6835L8.27853 17.0001H4.0002C3.44885 16.9989 3.0018 16.5518 3.00061 15.9999V4.00023C3.00179 3.44829 3.44885 3.00123 4.0002 3.00006H36.0003C36.5517 3.00123 36.9987 3.44829 36.9999 4.00023L36.999 15.9999Z" fill="#0D8CC5" stroke="#0D8CC5" stroke-width="0.5"/>
<path d="M27.0003 5.0004H23.0002C22.4476 5.0004 22 5.44805 22 5.99998C22 6.55251 22.4476 7.00016 23.0002 7.00016H27.0003C27.5522 7.00016 27.9998 6.55251 27.9998 5.99998C27.9998 5.44805 27.5522 5.0004 27.0003 5.0004Z" fill="#0D8CC5" stroke="#0D8CC5" stroke-width="0.5"/>
<path d="M33.0002 5.0004H30.9998C30.4479 5.0004 30.0002 5.44805 30.0002 5.99998C30.0002 6.55251 30.4479 7.00016 30.9998 7.00016H33.0002C33.5521 7.00016 33.9998 6.55251 33.9998 5.99998C33.9998 5.44805 33.5521 5.0004 33.0002 5.0004Z" fill="#0D8CC5" stroke="#0D8CC5" stroke-width="0.5"/>
<path d="M20.2926 21.2929L19.8748 21.7107V21.7113C19.2649 22.3195 18.8618 23.1046 18.7241 23.9548C18.5858 24.8049 18.7188 25.6773 19.105 26.4473C19.511 27.257 19.3516 28.2355 18.7106 28.8748L18.2929 29.2926V29.2931C18.0995 29.4795 17.9899 29.7355 17.9876 30.0033C17.9852 30.2716 18.0907 30.5294 18.2805 30.7193C18.4698 30.9091 18.7276 31.0146 18.9959 31.0122C19.2643 31.0099 19.5203 30.8997 19.7067 30.707L20.1244 30.2892C20.7344 29.6804 21.1375 28.8959 21.2752 28.0451C21.4135 27.1949 21.2805 26.3231 20.8943 25.5526C20.4883 24.7435 20.6477 23.765 21.2887 23.1251L21.7064 22.7073C22.0855 22.3147 22.0803 21.6908 21.6941 21.3052C21.3086 20.9197 20.6852 20.9144 20.2926 21.2929L20.2926 21.2929Z" fill="#0D8CC5" stroke="#0D8CC5" stroke-width="0.5"/>
<path d="M12.2927 21.2929L11.8744 21.7113C11.2644 22.3195 10.8619 23.1046 10.7236 23.9548C10.5853 24.8049 10.7189 25.6773 11.105 26.4473C11.5105 27.257 11.3517 28.2355 10.7107 28.8748L10.2924 29.2931C10.0996 29.4795 9.98945 29.7355 9.9871 30.0033C9.98475 30.2716 10.0908 30.5294 10.2801 30.7193C10.4699 30.9091 10.7277 31.0146 10.996 31.0122C11.2644 31.0099 11.5204 30.8997 11.7068 30.707L12.1245 30.2892C12.7345 29.6804 13.137 28.8959 13.2753 28.0451C13.4136 27.1949 13.28 26.3231 12.8938 25.5526C12.4884 24.7435 12.6472 23.765 13.2888 23.1251L13.7065 22.7073C14.0856 22.3148 14.0798 21.6908 13.6942 21.3052C13.3087 20.9197 12.6847 20.9144 12.2927 21.2929L12.2927 21.2929Z" fill="#0D8CC5" stroke="#0D8CC5" stroke-width="0.5"/>
<path d="M28.2934 21.2929L27.8756 21.7107V21.7113C27.2656 22.3195 26.8631 23.1046 26.7248 23.9548C26.5865 24.8049 26.7201 25.6773 27.1063 26.4473C27.5117 27.257 27.3529 28.2355 26.7114 28.8748L26.2936 29.2926V29.2931C26.1008 29.4795 25.9907 29.7355 25.9883 30.0033C25.986 30.2716 26.0914 30.5294 26.2813 30.7193C26.4711 30.9091 26.7289 31.0146 26.9973 31.0122C27.265 31.0099 27.5211 30.8997 27.7074 30.707L28.1252 30.2892H28.1258C28.7357 29.6804 29.1382 28.8959 29.2765 28.0451C29.4148 27.1949 29.2812 26.3231 28.8951 25.5526C28.4896 24.7435 28.6484 23.765 29.2894 23.1251L29.7072 22.7073H29.7078C30.0863 22.3147 30.081 21.6908 29.6954 21.3052C29.3099 20.9197 28.6859 20.9144 28.2933 21.2929L28.2934 21.2929Z" fill="#0D8CC5" stroke="#0D8CC5" stroke-width="0.5"/>
</svg>
