<svg width="34" height="34" viewBox="0 0 34 34" fill="none" xmlns="http://www.w3.org/2000/svg">
<path d="M4.92578 19.391L6.71509 21.2123L11.3121 25.886C11.5213 26.0989 11.9239 26.2099 12.2106 26.1333L14.8171 25.4383C15.1038 25.3617 15.2787 25.5379 15.2073 25.8306L14.553 28.523C14.4821 28.8157 14.5938 29.2272 14.8025 29.4409L15.0441 29.6878C15.2531 29.9015 15.5224 29.8524 15.6459 29.5785C15.6689 29.5273 15.7269 29.4067 15.8199 29.2175C16.3191 28.1846 16.8775 27.1847 17.4894 26.2231C18.1872 25.1136 18.9496 24.0427 19.771 23.0209C20.732 21.8187 21.7467 20.6712 22.8149 19.5674C23.062 19.3108 23.4054 19.1632 23.7599 19.1632C24.1141 19.1576 24.4577 19.2998 24.7098 19.5567C24.9677 19.8079 25.1072 20.1577 25.1125 20.5183C25.1125 20.8788 24.973 21.2286 24.7261 21.4855C23.7167 22.529 22.7559 23.6165 21.8485 24.7477C21.097 25.6873 20.3938 26.6765 19.7441 27.6984C19.1912 28.578 18.6812 29.4906 18.2248 30.4249C17.8277 31.2446 17.484 32.0916 17.1888 32.9548C17.0385 33.403 16.6735 33.7365 16.2224 33.8457C15.7714 33.9494 15.299 33.8128 14.9716 33.4796L12.1026 30.5593C11.8934 30.3464 11.838 29.9578 11.9792 29.6929L12.8935 27.9787C13.0346 27.7135 12.9359 27.6113 12.6732 27.7509L10.963 28.6569C10.7003 28.7962 10.3167 28.7366 10.1072 28.523L4.81976 23.1465L1.23371 19.4964C0.911608 19.1685 0.777398 18.6931 0.87398 18.2396C0.970802 17.7861 1.29291 17.409 1.71685 17.2507C2.13554 17.0921 2.54893 16.9228 2.95711 16.7369C3.39713 16.5403 3.83213 16.3327 4.26161 16.1086C4.58371 15.9393 4.90582 15.759 5.22792 15.5785C5.56609 15.3819 5.89901 15.1852 6.23185 14.972C7.33241 14.2837 8.38977 13.535 9.40449 12.7263C10.6608 11.7207 11.874 10.6606 13.0389 9.54603C13.2966 9.30013 13.6403 9.16353 13.9997 9.1745C14.3542 9.18524 14.6924 9.3438 14.934 9.60604C15.1808 9.86827 15.3098 10.2181 15.299 10.5842C15.2882 10.9448 15.1379 11.289 14.8803 11.5349C13.6563 12.7097 12.3839 13.8245 11.0579 14.8737C9.96287 15.748 8.82477 16.5567 7.63819 17.2998C7.2787 17.5293 6.91349 17.7479 6.54316 17.9555C6.19421 18.1577 5.83974 18.3546 5.48555 18.5402C5.278 18.6458 5.12629 18.7219 5.03019 18.7688C4.76296 18.8993 4.71623 19.1779 4.9257 19.3911L4.92578 19.391Z" fill="#0D8CC5"/>
<path d="M18.9881 11.5462L14.0165 6.4859C13.7642 6.22903 13.426 6.08706 13.0716 6.08706C12.7118 6.08706 12.3737 6.22903 12.1213 6.4859C11.8692 6.74277 11.7295 7.09234 11.7295 7.45311C11.7295 7.81365 11.8692 8.16347 12.1213 8.42007L25.8541 22.398C26.1062 22.6546 26.4499 22.7969 26.8041 22.7969C27.1585 22.7969 27.5019 22.6546 27.7543 22.398C28.0067 22.1412 28.1461 21.7969 28.1461 21.4308C28.1461 21.07 28.0067 20.7258 27.7543 20.469L22.7828 15.4087C22.3638 14.9825 22.3638 14.2895 22.7828 13.8633L32.849 3.61731C33.1496 3.31116 33.3214 2.89596 33.3214 2.45882C33.3214 2.02167 33.1496 1.60651 32.849 1.30033C32.5482 0.994426 32.1403 0.819519 31.7109 0.819519C31.2814 0.819519 30.8735 0.994426 30.5727 1.30033L20.5064 11.5463C20.0878 11.9727 19.4069 11.9727 18.9882 11.5463L18.9881 11.5462Z" fill="#0D8CC5"/>
</svg>
