<svg width="28" height="22" viewBox="0 0 28 22" fill="none" xmlns="http://www.w3.org/2000/svg">
<path d="M26.8548 5.43456C23.3571 1.93689 18.703 0 13.7309 0C8.75889 0 4.10483 1.93678 0.607052 5.43456C-0.202351 6.24396 -0.202351 7.51588 0.607052 8.32528C1.01174 8.72997 1.53219 8.93244 2.05241 8.93244C2.57264 8.93244 3.09307 8.72999 3.49777 8.32528C6.2149 5.57894 9.85736 4.07571 13.7309 4.07571C17.6045 4.07571 21.2468 5.57894 23.9641 8.32508C24.7735 9.13448 26.0454 9.13448 26.8548 8.32508C27.6644 7.51567 27.6644 6.2149 26.8548 5.43435V5.43456Z" fill="#0D8CC5"/>
<path d="M6.04162 10.8981C5.23222 11.7076 5.23222 12.9795 6.04162 13.7889C6.44631 14.1936 6.96676 14.396 7.48698 14.396C8.00721 14.396 8.52765 14.1936 8.93235 13.7889C11.5918 11.1294 15.899 11.1294 18.5295 13.76C19.3101 14.5694 20.6109 14.5694 21.4203 13.76C22.2297 12.9506 22.2297 11.6787 21.4203 10.8693C17.1709 6.64875 10.291 6.64875 6.04162 10.8981Z" fill="#0D8CC5"/>
<path d="M16.9399 18.5584C16.9399 20.3146 15.5163 21.7381 13.76 21.7381C12.0039 21.7381 10.5803 20.3146 10.5803 18.5584C10.5803 16.8022 12.0039 15.3785 13.76 15.3785C15.5163 15.3785 16.9399 16.8021 16.9399 18.5584Z" fill="#0D8CC5"/>
</svg>
