<svg width="32" height="18" viewBox="0 0 32 18" fill="none" xmlns="http://www.w3.org/2000/svg">
<path d="M31.7311 17.1857C31.9018 17.0165 31.9985 16.7864 31.9998 16.5457C32.002 16.3047 31.9049 16.073 31.7311 15.9058L16.6396 0.814943C16.4707 0.643738 16.2403 0.54731 15.9997 0.54731C15.7591 0.54731 15.5287 0.643738 15.3598 0.814943L0.265466 15.9058C0.086226 16.0734 -0.0173454 16.3067 -0.0213626 16.552C-0.0253804 16.7976 0.0701574 17.0339 0.243815 17.2076C0.417255 17.3811 0.65386 17.4768 0.899186 17.4726C1.1445 17.4686 1.37776 17.365 1.54541 17.1858L15.9997 2.7349L30.4506 17.1858C30.62 17.3563 30.8503 17.4521 31.0907 17.4521C31.3309 17.4521 31.5613 17.3563 31.7307 17.1858L31.7311 17.1857Z" fill="#C3ECFE"/>
</svg>
