<svg width="23" height="20" viewBox="0 0 23 20" fill="none" xmlns="http://www.w3.org/2000/svg">
<path d="M22.0244 0.610858H0.904438C0.515509 0.610858 0.2005 0.933039 0.2005 1.33079V15.5289C0.2005 15.72 0.274653 15.9031 0.406748 16.0382C0.538603 16.1731 0.71784 16.2489 0.90445 16.2489H9.90182V17.786L7.6279 17.7862C7.33866 17.7852 7.0612 17.902 6.85645 18.1107C6.65168 18.3193 6.53677 18.6028 6.53677 18.8987V19.3883L16.3928 19.3881V18.8987C16.3928 18.6041 16.2788 18.3218 16.0755 18.1132C15.8722 17.9047 15.5965 17.7872 15.3087 17.7862H13.0277V16.2489H22.0251C22.2117 16.2489 22.3909 16.173 22.5228 16.0382C22.6549 15.9031 22.729 15.72 22.729 15.5289V1.33079C22.729 1.13969 22.6549 0.956626 22.5228 0.821523C22.3909 0.686671 22.2117 0.61084 22.0251 0.61084L22.0244 0.610858ZM20.6166 14.089H2.31256V2.77022H20.6166V14.089Z" fill="#469AD9"/>
</svg>
