<svg width="20" height="15" viewBox="0 0 20 15" fill="none" xmlns="http://www.w3.org/2000/svg">
<path d="M18.8215 3.63395C16.4827 1.29515 13.3706 0 10.0459 0C6.72126 0 3.6092 1.29508 1.27033 3.63395C0.729104 4.17518 0.729104 5.02568 1.27033 5.56691C1.54094 5.83751 1.88894 5.97289 2.23681 5.97289C2.58467 5.97289 2.93267 5.83752 3.20328 5.56691C5.02016 3.7305 7.45578 2.72533 10.0459 2.72533C12.6361 2.72533 15.0716 3.7305 16.8886 5.56677C17.4298 6.10799 18.2803 6.10799 18.8215 5.56677C19.3629 5.02554 19.3629 4.15575 18.8215 3.63381V3.63395Z" fill="#469AD9"/>
<path d="M4.90427 7.28732C4.36305 7.82855 4.36305 8.67905 4.90427 9.22027C5.17488 9.49088 5.52289 9.62626 5.87075 9.62626C6.21861 9.62626 6.56661 9.49089 6.83723 9.22027C8.61554 7.44196 11.4956 7.44196 13.2546 9.20099C13.7766 9.74222 14.6464 9.74222 15.1876 9.20099C15.7288 8.65977 15.7288 7.80927 15.1876 7.26804C12.3461 4.44586 7.74571 4.44586 4.90427 7.28732Z" fill="#469AD9"/>
<path d="M12.1915 12.4095C12.1915 13.5838 11.2396 14.5357 10.0652 14.5357C8.89094 14.5357 7.93903 13.5838 7.93903 12.4095C7.93903 11.2351 8.89094 10.2832 10.0652 10.2832C11.2396 10.2832 12.1915 11.2351 12.1915 12.4095Z" fill="#469AD9"/>
</svg>
